<svg xmlns="http://www.w3.org/2000/svg" width="759" height="459.08" viewBox="0 0 759 459.08"><defs><style>.a{fill:#b2b2b2;}.b{opacity:0.1;}.c,.g{fill:none;stroke-miterlimit:10;}.c{stroke:#d7d7d7;}.d{fill:#a5d1fe;}.e{fill:#f5f5f5;}.f{fill:#fff;}.g{stroke:#000;stroke-linecap:round;}.h{fill:#424da3;}.i{opacity:0.2;}.j{fill:#e1b293;}</style></defs><g transform="translate(0.5)"><path class="a" d="M376.333,702.841H716.845a42.1,42.1,0,0,0,42.1-42.1V504.731a16.68,16.68,0,0,0-5.2-12.105L573.305,321.586a38.835,38.835,0,0,0-53.433,0L347.835,484.664a43.6,43.6,0,0,0-13.6,31.642V660.738a42.1,42.1,0,0,0,42.1,42.1Z" transform="translate(-213.948 -245.355)"/><path class="b" d="M662.133,387.992H240.954V558.116a25.423,25.423,0,0,0,25.423,25.423H636.71a25.423,25.423,0,0,0,25.423-25.423V387.992Z" transform="translate(-117.302 -126.121)"/><path class="c" d="M333.73,521.351" transform="translate(211.543 -269.655)"/><rect class="d" width="313.23" height="313.23" rx="26.181" transform="translate(176.299 127.82)"/><path class="b" d="M303.454,395.942V568.086h313.23V395.942l-156.615,75.7Z" transform="translate(-127.155 -127.036)"/><path class="e" d="M546.088,624.621l200.674-96.992a8.142,8.142,0,0,1,11.685,7.331V701.838a25.423,25.423,0,0,1-25.423,25.423H359.153a25.423,25.423,0,0,1-25.423-25.423V537.818a9.936,9.936,0,0,1,14.259-8.945Z" transform="translate(-213.448 -270.236)"/><rect class="f" width="87.598" height="12.388" transform="translate(209.943 156.577)"/><rect class="f" width="260.14" height="7.079" transform="translate(209.48 201.703)"/><rect class="f" width="260.14" height="7.079" transform="translate(209.48 225.593)"/><rect class="f" width="260.14" height="7.079" transform="translate(209.48 249.484)"/><line class="g" x1="758" transform="translate(0 458.58)"/><path class="h" d="M166.45,630.212c0,52.17-32.729,94.385-73.175,94.385" transform="translate(591.55 -282.193)"/><path class="d" d="M257.634,724.46c0-52.756-36.523-95.446-81.659-95.446" transform="translate(427.225 -282.055)"/><path class="d" d="M169.9,635.557c0,49.556-20.87,89.655-46.662,89.655" transform="translate(561.62 -282.808)"/><path class="h" d="M270.36,721.009c0-67.41-42.215-121.958-94.385-121.958" transform="translate(414.499 -278.604)"/><path class="a" d="M197.191,736.905s-10.377-.32-13.5-2.547-15.963-4.886-16.739-1.315-15.6,17.764-3.879,17.858,27.223-1.825,30.344-3.726S197.191,736.905,197.191,736.905Z" transform="translate(503.062 -293.835)"/><path class="i" d="M162.857,750.387c11.716.094,27.223-1.825,30.344-3.726,2.377-1.448,3.324-6.644,3.641-9.041l.346.014S196.531,746,193.41,747.9s-18.628,3.821-30.344,3.726c-3.382-.027-4.55-1.231-4.486-3.013C159.05,749.694,160.339,750.367,162.857,750.387Z" transform="translate(503.064 -294.563)"/><path class="j" d="M852.764,305.7c.532,4.738,4.146,8.554,5.484,13.13,2.015,6.887-1.469,14.278-6.236,19.641a43.5,43.5,0,0,1-30.291,14.383,12.919,12.919,0,0,1-5.008-.546,10.721,10.721,0,0,1-3.81-2.6c-3.59-3.6-5.517-8.6-6.285-13.628s-.469-10.153-.169-15.231a8.6,8.6,0,0,1,.563-3.072,7.871,7.871,0,0,1,1.977-2.431,46.077,46.077,0,0,1,8.485-6.164,9.741,9.741,0,0,0,3.556-2.721,8.79,8.79,0,0,0,1.1-3.257l.938-4.777a9.388,9.388,0,0,1,1.377-3.872c1.656-2.234,4.824-2.538,7.6-2.647l10.18-.4c3.167-.124,7.339-1.032,10.43-.41,2.887.581,1.928,3.241,1.4,5.663A40.935,40.935,0,0,0,852.764,305.7Z" transform="translate(-731.553 -243.112)"/><path class="b" d="M852.764,305.7c.532,4.738,4.146,8.554,5.484,13.13,2.015,6.887-1.469,14.278-6.236,19.641a43.5,43.5,0,0,1-30.291,14.383,12.919,12.919,0,0,1-5.008-.546,10.721,10.721,0,0,1-3.81-2.6c-3.59-3.6-5.517-8.6-6.285-13.628s-.469-10.153-.169-15.231a8.6,8.6,0,0,1,.563-3.072,7.871,7.871,0,0,1,1.977-2.431,46.077,46.077,0,0,1,8.485-6.164,9.741,9.741,0,0,0,3.556-2.721,8.79,8.79,0,0,0,1.1-3.257l.938-4.777a9.388,9.388,0,0,1,1.377-3.872c1.656-2.234,4.824-2.538,7.6-2.647l10.18-.4c3.167-.124,7.339-1.032,10.43-.41,2.887.581,1.928,3.241,1.4,5.663A40.935,40.935,0,0,0,852.764,305.7Z" transform="translate(-731.553 -243.112)"/><path d="M827,545.588q2.163,23.721,4.327,47.434c1.129,12.441,2.28,24.934,4.494,37.215.765,4.232,1.661,8.442,2.724,12.616,2.957,11.589,7.248,22.916,8.632,34.8.044.342.08.692.117,1.042a30.251,30.251,0,0,0,1.479,7.721c.692,1.814,1.755,3.467,2.506,5.259,1.493,3.584,1.69,7.546,1.872,11.429a49.27,49.27,0,0,1,16.965-5.8c2.877-.43,6.082-.736,8.042-2.885,2.171-2.375,1.93-6.009,1.566-9.2q-1.716-14.86-3.424-29.7a77.421,77.421,0,0,0-2.163-12.616c-.393-1.377-.867-2.732-1.348-4.086-.663-1.865-1.333-3.729-1.836-5.645a67.987,67.987,0,0,1-1.515-9.4c-1.173-9.965-2.586-19.908-3.824-29.865l-.066-.524c-1.857-15.093-3.271-30.258-2.863-45.46.058-2.251.153-4.5.3-6.76.2-3.271.5-5-2.207-7.051-2.994-2.258-6.934-3.839-10.358-5.318-1.843-.8-22.137-8.005-22.61-6.425a39.539,39.539,0,0,0-1.486,10.358A115.242,115.242,0,0,0,827,545.588Z" transform="translate(-770.549 -269.745)"/><path class="b" d="M834.428,639.51c.765,4.232,1.661,8.442,2.724,12.616,2.957,11.589,7.248,22.916,8.632,34.8.044.342.08.692.117,1.042,9.047-12.922,16.666-26.82,25.494-39.881-.663-1.865-1.333-3.729-1.836-5.645a67.97,67.97,0,0,1-1.515-9.4c-1.173-9.965-2.586-19.907-3.824-29.865l-.066-.524a30.941,30.941,0,0,1-2.207,6.126c-5.929,12.048-20.017,18.138-26.908,29.668Q834.723,638.974,834.428,639.51Z" transform="translate(-769.156 -279.018)"/><path d="M891.81,516.946c-.3,9.663-1.846,19.239-3.389,28.783l-3.185,19.691c-1.743,10.777-3.558,21.773-8.658,31.426-3.815,7.22-9.312,13.382-14.284,19.86-12.224,15.926-21.408,33.966-33,50.358-3.369,4.765-8.185,9.917-13.935,8.922-3.774-.653-6.515-3.795-9.481-6.217-3.5-2.856-7.712-4.946-10.464-8.526s-3.291-9.531.437-12.078a19.668,19.668,0,0,1,4.267-1.746c5.779-2.2,9.52-7.842,11.9-13.548s3.822-11.843,6.994-17.151c6.89-11.531,20.98-17.62,26.91-29.672,3.322-6.75,3.638-14.531,3.892-22.05l.647-19.167a14,14,0,0,0-.726-6.192c-2.269-5.1-9.118-5.577-14.664-6.224a50.163,50.163,0,0,1-17.971-5.67c-3.194-1.725-6.315-3.924-8.024-7.127-1.559-2.922-1.774-6.35-1.957-9.657l-1.92-34.737c-.165-2.988-.316-6.079.737-8.88,2.645-7.035,11.528-9.334,19.036-9,13.971.625,26.869,6.635,40.043,10.693a101.814,101.814,0,0,0,9.925,2.589c2.957.593,6.535.347,9.354,1.3,5.015,1.691,4.887,12.657,5.6,17.206a144.837,144.837,0,0,1,1.916,26.815Z" transform="translate(-753.128 -262.395)"/><path class="h" d="M912.065,703.041a8.881,8.881,0,0,0-1.956,4.783,163.326,163.326,0,0,0-2.766,28.927,4.723,4.723,0,0,1-.521,2.621,3.292,3.292,0,0,1-1.361,1.094c-3.561,1.7-7.694-.668-10.661-3.267-5.5-4.818-10.155-11.286-10.467-18.591a43.175,43.175,0,0,0-.2-5.638c-.483-2.75-2.089-5.147-3.5-7.554a63.755,63.755,0,0,1-5.791-12.982c-.541-1.7-.9-3.845.433-5.032a4.852,4.852,0,0,1,1.585-.824l16.085-5.973c1.394-.517,4.862,8.392,5.413,9.366,1.347,2.383,2.686,3.735,5.387,4.285,2.758.561,6.04-.244,8.614,1.132C916.71,697.714,914.529,700.555,912.065,703.041Z" transform="translate(-847.936 -287.994)"/><path class="h" d="M837.888,711.817a4.932,4.932,0,0,1,1.224-1.552,5.538,5.538,0,0,1,2.47-.839c3.062-.52,6.692-.862,8.805,1.414,1.982,2.134,1.641,5.61,3.3,8.005.524.758,1.235,1.383,1.69,2.185a8.237,8.237,0,0,1,.741,3.919c.086,3.712.171,7.43-.085,11.135-.215,3.1-.738,6.357-2.679,8.788-3.116,3.9-8.735,4.464-13.722,4.718l-4.039.205a7.887,7.887,0,0,1-3.31-.3,5.45,5.45,0,0,1-2.855-3.142c-2.1-5.226,1.227-10.857,3.278-16.1C835.059,724.214,834.635,717.519,837.888,711.817Z" transform="translate(-748.939 -291.272)"/><path d="M836.433,273.727a3.338,3.338,0,0,0-.227-1.557c-.592-1.046-2.137-.761-3.3-.468-4.687,1.182-9.625.112-14.45.388s-10.261,2.688-11.231,7.423a35.238,35.238,0,0,1-8.909-9.154c-1.339-2-2.507-4.3-2.324-6.7.263-3.467,3.172-6.059,5.865-8.258l8.028-6.554a12.1,12.1,0,0,1,3.595-2.285c1.854-.634,3.876-.332,5.835-.33,5.844,0,12.075-2.656,17.273.016a18.644,18.644,0,0,1,5.381,4.893l7.165,8.482a4.53,4.53,0,0,1,1.145,1.942c.2,1.035-.328,2.057-.513,3.1-.339,1.895.478,3.917-.15,5.737-1.042,3.021-4.71,3.449-6.952,5.18-.836.645-2.146,2.833-3.141,2.806C837.723,278.333,836.48,275.123,836.433,273.727Z" transform="translate(-714.053 -237.834)"/><circle class="j" cx="22.945" cy="22.945" r="22.945" transform="translate(87.278 15.005)"/><path class="h" d="M827.49,333.312a11.115,11.115,0,0,1,10.821-7.447,3.3,3.3,0,0,0,2-.252,2.751,2.751,0,0,0,.82-1.026,40.085,40.085,0,0,0,3.346-7.909c.366-1.214.867-2.646,2.1-2.962a2.83,2.83,0,0,1,2.671,1.162,23.545,23.545,0,0,0,1.909,2.4c2.886,2.58,8,.228,11.064,2.6.5.387.913.882,1.439,1.234a6.718,6.718,0,0,0,1.685.722,161.59,161.59,0,0,1,17.366,6.8c-2.037,12.27-4.125,24.754-8.9,36.238-2.273,5.465-4.848,10.818-6.668,16.45-4.032,12.479-4.211,25.832-4.256,38.946-.031,8.976.014,18.143,2.918,26.636a25.139,25.139,0,0,1,1.64,5.851,6.063,6.063,0,0,1-2.054,5.454,7.025,7.025,0,0,1-3.169,1.113c-5.032.738-10.1-.6-15.059-1.748-13.28-3.075-26.823-4.835-40.341-6.59l-22.651-2.941a13.149,13.149,0,0,1-4.687-1.211c-4.145-2.27-4.538-8.5-1.964-12.467,1.234-1.9,2.975-3.459,4.012-5.473s1.125-4.831-.66-6.226c-3.631-2.838-2.548-8.1-2.721-12.708q-.726-19.315.2-38.645a76.962,76.962,0,0,0,.128-8.015,70.973,70.973,0,0,0-2.5-13.374l-6.883-27.1c1.8-2.841,5.241-4.644,8.5-5.462s6.658-1.059,9.87-2.055c6.58-2.039,12.438-7.213,19.309-6.731a3.5,3.5,0,0,1,1.5.365c1.55.878,1.3,3.111,1.4,4.89.219,3.935,3.113,7.223,6.309,9.529s6.846,3.987,9.781,6.616a4.365,4.365,0,0,1,1.736,3.34Z" transform="translate(-722.642 -245.146)"/><path class="j" d="M741.409,364.482a27.086,27.086,0,0,0,4.826,2.483,15.864,15.864,0,0,1,4.623,2.244,7.244,7.244,0,0,1,1.608,1.986,8.833,8.833,0,0,1-8.145,13.161,17.731,17.731,0,0,1-6.023-1.8l-16.184-7.013c-2.739-1.187-5.7-2.578-6.993-5.268a1.224,1.224,0,0,1-.158-.836,1.383,1.383,0,0,1,.665-.7,36.159,36.159,0,0,0,9.423-8.886c.664-.9,1.477-3.03,2.415-3.571C730.892,354.316,738.667,362.7,741.409,364.482Z" transform="translate(-545.645 -250.611)"/><path class="j" d="M899.155,359.084l-5.966,6.816c-1.281,1.463-2.563,2.928-3.731,4.483a52.325,52.325,0,0,0-6.834,12.874c-1.3,3.4-2.373,7.028-1.92,10.642a26.039,26.039,0,0,0,1.492,5.412,67.365,67.365,0,0,0,4.054,9.765,55.615,55.615,0,0,0,4.562,6.837,159.654,159.654,0,0,0,15.125,17.3c2.04,2.019,2.9,5.284,3.783,8.014,1.638,5.034,5.535,8.956,9.3,12.674a25.867,25.867,0,0,0,3.995,3.438,13.012,13.012,0,0,0,7.27,2.07,7.98,7.98,0,0,0,3.274-.678c2.579-1.225,3.89-4.207,4.158-7.049a14.994,14.994,0,0,0-1.255-7.539c-3.424-7.584-12.216-10.871-18.431-16.4-3.644-3.245-6.431-7.321-9.179-11.353a39.241,39.241,0,0,1-4.642-8.137c-1.388-3.7-.848-8.087-2.06-11.852-.513-1.591-1.424-3.028-1.975-4.606a5.374,5.374,0,0,1,.274-4.818,7,7,0,0,1,2.7-1.978c3.97-2.015,8.417-4.608,9.176-9a9.637,9.637,0,0,0-1.778-6.87,28.624,28.624,0,0,0-5.006-5.247C903.812,362.346,900.892,360.619,899.155,359.084Z" transform="translate(-876.399 -250.967)"/><path class="j" d="M695.709,375.553c1.054-2.128,2.371-4.3,4.5-5.358a8.286,8.286,0,0,1,6.536-.027,24.573,24.573,0,0,1,5.736,3.469l5.143,3.791a12.662,12.662,0,0,1,3.053,2.818,11.9,11.9,0,0,1,1.59,4.363,31.189,31.189,0,0,1,.809,10.792c-.816,5.8-4.313,10.863-8.161,15.277-2.4,2.759-5.374,5.542-9.032,5.66a4.142,4.142,0,0,1-3.992-2.008,5.01,5.01,0,0,1-.357-1.789c-.4-6.469,1.919-12.787,4.617-18.68a11.977,11.977,0,0,0,1.489-5.019,1.377,1.377,0,0,0-.22-.841,1.42,1.42,0,0,0-.878-.429c-3.693-.731-10.055,2.139-12.646-1.963C692.214,382.951,694.516,377.965,695.709,375.553Z" transform="translate(-496.114 -252.168)"/><path d="M835.073,265.568a3.338,3.338,0,0,0-.227-1.557c-.592-1.046-2.136-.761-3.3-.468-4.687,1.182-9.625.112-14.451.388s-10.261,2.688-11.231,7.423a35.238,35.238,0,0,1-8.909-9.154c-1.339-2-2.507-4.3-2.324-6.7.263-3.467,3.172-6.059,5.865-8.258l8.028-6.554a12.1,12.1,0,0,1,3.595-2.285c1.854-.634,3.876-.332,5.835-.33,5.844,0,12.075-2.656,17.272.016a18.645,18.645,0,0,1,5.381,4.893l7.165,8.482a4.53,4.53,0,0,1,1.145,1.942c.2,1.035-.328,2.057-.513,3.1-.338,1.895.478,3.917-.15,5.737-1.042,3.021-4.71,3.449-6.952,5.18-.836.645-2.146,2.833-3.141,2.806C836.363,270.173,835.12,266.963,835.073,265.568Z" transform="translate(-711.49 -236.895)"/><path class="h" d="M766.729,339.371a9.326,9.326,0,0,1,2.4,2.236c.841,1.272,1.012,2.878,1.735,4.221,1.546,2.874,5.163,3.9,7.42,6.253A2.336,2.336,0,0,1,779,353.3a2.726,2.726,0,0,1-.606,1.761l-10.88,17.105c-3.623.319-7.1-1.951-10.722-1.649-1.353.112-2.738.58-4.036.18a11.573,11.573,0,0,1-2.59-1.584c-2.162-1.367-5.042-1.526-6.856-3.33-1.741-1.731-1.963-4.439-1.942-6.894a27.712,27.712,0,0,1,.647-6.342c1.6-6.566,6.623-11.6,9.771-17.42,1.533-2.831,2.366-4.489,5.61-2.545C760.654,334.539,763.66,337.127,766.729,339.371Z" transform="translate(-594.411 -247.818)"/><path class="h" d="M904.718,329.837a25.455,25.455,0,0,0-5.474,4.795c-1.658,2.137-2.6,4.753-4.189,6.939-1.543,2.119-3.644,3.761-5.395,5.712-2.655,2.959-4.453,6.57-6.219,10.132a151.355,151.355,0,0,0,14.074,15.907,4.539,4.539,0,0,0,2.137,1.4,3.448,3.448,0,0,0,3.021-1.232c.784-.822,1.339-1.836,2.088-2.689a10.761,10.761,0,0,1,6.652-3.217,45.682,45.682,0,0,1,7.537-.1,2.98,2.98,0,0,0,1.61-.271,2.7,2.7,0,0,0,.878-1.007c2.946-5.013,2-11.306.959-17.027l-2.385-13.127a29.46,29.46,0,0,0-1.985-7.3c-.9-1.93-2.923-5.2-5.407-4.626C910.119,324.713,906.825,328.322,904.718,329.837Z" transform="translate(-864.543 -246.934)"/></g></svg>