<svg xmlns="http://www.w3.org/2000/svg" xmlns:xlink="http://www.w3.org/1999/xlink" width="285" height="240" viewBox="0 0 285 240"><defs><style>.a,.f{fill:#fff;}.a{stroke:#707070;}.b{clip-path:url(#a);}.c{fill:#b2b2b2;}.d{opacity:0.1;}.e{fill:none;stroke:#d7d7d7;stroke-miterlimit:10;}.g{fill:#f5f5f5;}.h{fill:#424da3;}</style><clipPath id="a"><rect class="a" width="285" height="240" transform="translate(345 3225)"/></clipPath></defs><g class="b" transform="translate(-345 -3225)"><g transform="translate(-570 1891.904)"><path class="c" d="M362.464,573.748H590.812a28.234,28.234,0,0,0,28.234-28.234V440.9a11.186,11.186,0,0,0-3.49-8.118l-121-114.7a26.043,26.043,0,0,0-35.832,0L343.353,427.438a29.238,29.238,0,0,0-9.123,21.219v96.857a28.234,28.234,0,0,0,28.235,28.234Z" transform="translate(580.77 1052.16)"/><path class="d" d="M523.4,387.992H240.954V502.077A17.049,17.049,0,0,0,258,519.126H506.349A17.049,17.049,0,0,0,523.4,502.077V387.992Z" transform="translate(676.306 1106.737)"/><path class="e" d="M333.73,521.351" transform="translate(866.27 966.554)"/><rect class="f" width="210.053" height="210.053" rx="26.181" transform="translate(952.565 1404.834)"/><path class="d" d="M303.454,395.942v115.44H513.507V395.942L408.48,446.7Z" transform="translate(649.111 1103.505)"/><path class="g" d="M476.138,592.4,610.71,527.361a5.46,5.46,0,0,1,7.836,4.916V644.187A17.049,17.049,0,0,1,601.5,661.235H350.779a17.049,17.049,0,0,1-17.049-17.049V534.194a6.663,6.663,0,0,1,9.562-6Z" transform="translate(581.271 964.364)"/><rect class="h" width="58.743" height="8.307" transform="translate(975.127 1424.118)"/><rect class="h" width="174.45" height="4.747" transform="translate(974.817 1454.38)"/><rect class="h" width="174.45" height="4.747" transform="translate(974.817 1470.401)"/><rect class="h" width="174.45" height="4.747" transform="translate(974.817 1486.422)"/></g></g></svg>