<svg xmlns="http://www.w3.org/2000/svg" width="183.195" height="200" viewBox="0 0 183.195 200"><defs><style>.a{fill:#fff;}.b{fill:#a5d1fe;}.c{fill:#ffc943;}.d{fill:#424da3;}.e{fill:#ffe783;}</style></defs><g transform="translate(-1019.694 -390)"><g transform="translate(1019.694 390)"><path class="a" d="M239.2,106.536V236.719a6.872,6.872,0,0,1-6.87,6.87H62.87a6.872,6.872,0,0,1-6.87-6.87V106.536a6.872,6.872,0,0,1,6.87-6.87H232.326a6.872,6.872,0,0,1,6.87,6.87Z" transform="translate(-56 -71.265)"/><path class="b" d="M239.2,121.728V106.536a6.87,6.87,0,0,0-6.87-6.87H62.87a6.87,6.87,0,0,0-6.87,6.87v15.192Z" transform="translate(-56 -71.265)"/><path class="c" d="M122.851,327.51h-7.328a1.374,1.374,0,0,1-1.374-1.374V284.521a1.374,1.374,0,0,1,1.374-1.374h7.328a1.374,1.374,0,0,1,1.374,1.374v41.615A1.374,1.374,0,0,1,122.851,327.51Z" transform="translate(-87.517 -170.714)"/><path class="b" d="M90.139,356.35H82.811a1.374,1.374,0,0,1-1.374-1.374V337.73a1.374,1.374,0,0,1,1.374-1.374h7.328a1.374,1.374,0,0,1,1.374,1.374v17.246A1.374,1.374,0,0,1,90.139,356.35Z" transform="translate(-69.787 -199.554)"/><path class="b" d="M155.564,350.56h-7.328a1.374,1.374,0,0,1-1.374-1.374V327.047a1.374,1.374,0,0,1,1.374-1.374h7.328a1.374,1.374,0,0,1,1.374,1.374v22.139A1.374,1.374,0,0,1,155.564,350.56Z" transform="translate(-105.248 -193.764)"/><path class="c" d="M188.277,324.258h-7.328a1.374,1.374,0,0,1-1.374-1.374V278.521a1.374,1.374,0,0,1,1.374-1.374h7.328a1.374,1.374,0,0,1,1.374,1.374v44.364A1.374,1.374,0,0,1,188.277,324.258Z" transform="translate(-122.979 -167.462)"/><path class="b" d="M220.989,331.048h-7.328a1.374,1.374,0,0,1-1.374-1.374V291.047a1.374,1.374,0,0,1,1.374-1.374h7.328a1.374,1.374,0,0,1,1.374,1.374v38.627A1.374,1.374,0,0,1,220.989,331.048Z" transform="translate(-140.709 -174.251)"/><path class="c" d="M253.7,311.25h-7.328A1.374,1.374,0,0,1,245,309.876V254.521a1.374,1.374,0,0,1,1.374-1.374H253.7a1.374,1.374,0,0,1,1.374,1.374v55.355A1.374,1.374,0,0,1,253.7,311.25Z" transform="translate(-158.44 -154.454)"/><path class="b" d="M286.415,334.3h-7.328a1.374,1.374,0,0,1-1.374-1.374V297.047a1.374,1.374,0,0,1,1.374-1.374h7.328a1.374,1.374,0,0,1,1.374,1.374v35.879A1.374,1.374,0,0,1,286.415,334.3Z" transform="translate(-176.171 -177.503)"/><path class="c" d="M319.127,308H311.8a1.374,1.374,0,0,1-1.374-1.374v-58.1a1.374,1.374,0,0,1,1.374-1.374h7.328a1.374,1.374,0,0,1,1.374,1.374v58.1A1.374,1.374,0,0,1,319.127,308Z" transform="translate(-193.901 -151.202)"/><path class="b" d="M351.84,314.787h-7.328a1.374,1.374,0,0,1-1.374-1.374V261.047a1.374,1.374,0,0,1,1.374-1.374h7.328a1.374,1.374,0,0,1,1.374,1.374v52.366A1.374,1.374,0,0,1,351.84,314.787Z" transform="translate(-211.632 -157.991)"/><path class="c" d="M384.553,301.779h-7.328a1.374,1.374,0,0,1-1.374-1.374V237.047a1.374,1.374,0,0,1,1.374-1.374h7.328a1.374,1.374,0,0,1,1.374,1.374v63.358A1.374,1.374,0,0,1,384.553,301.779Z" transform="translate(-229.363 -144.982)"/><path class="b" d="M417.265,275.477h-7.328a1.374,1.374,0,0,1-1.374-1.374V188.521a1.374,1.374,0,0,1,1.374-1.374h7.328a1.374,1.374,0,0,1,1.374,1.374V274.1A1.374,1.374,0,0,1,417.265,275.477Z" transform="translate(-247.093 -118.681)"/><path class="d" d="M131.335,185.364a7.608,7.608,0,1,0-13.038,5.318A7.579,7.579,0,0,0,116.12,196a2.29,2.29,0,0,0,4.58,0,3.028,3.028,0,1,1,6.056,0,2.29,2.29,0,0,0,4.58,0,7.58,7.58,0,0,0-2.177-5.318A7.579,7.579,0,0,0,131.335,185.364Zm-7.608-3.028a3.027,3.027,0,1,1-3.028,3.028A3.031,3.031,0,0,1,123.728,182.336Z" transform="translate(-88.586 -113.591)"/><path class="d" d="M222.176,191.313h41.21a2.346,2.346,0,1,0,0-4.693h-41.21a2.346,2.346,0,0,0,0,4.693Z" transform="translate(-144.798 -118.395)"/><path class="d" d="M172.29,191.313h11.256a2.346,2.346,0,1,0,0-4.693H172.29a2.346,2.346,0,1,0,0,4.693Z" transform="translate(-117.759 -118.395)"/><path class="d" d="M172.29,211.632h64.057a2.346,2.346,0,0,0,0-4.693H172.29a2.346,2.346,0,0,0,0,4.693Z" transform="translate(-117.759 -129.408)"/><circle class="d" cx="2.56" cy="2.56" r="2.56" transform="translate(27.937 91.233)"/><circle class="d" cx="2.56" cy="2.56" r="2.56" transform="translate(35.682 91.233)"/><circle class="d" cx="2.56" cy="2.56" r="2.56" transform="translate(43.427 91.233)"/><path class="b" d="M372.17,65.947a2.29,2.29,0,0,1-2.29-2.29,2.759,2.759,0,0,0-2.755-2.755,2.29,2.29,0,0,1,0-4.58,2.758,2.758,0,0,0,2.755-2.755,2.29,2.29,0,1,1,4.58,0,2.759,2.759,0,0,0,2.755,2.755,2.29,2.29,0,0,1,0,4.58,2.758,2.758,0,0,0-2.755,2.755A2.29,2.29,0,0,1,372.17,65.947Z" transform="translate(-223.392 -45.038)"/><path class="e" d="M177.2,52.324a2.29,2.29,0,0,1-2.29-2.29,2.759,2.759,0,0,0-2.755-2.755,2.29,2.29,0,0,1,0-4.58,2.758,2.758,0,0,0,2.755-2.755,2.29,2.29,0,1,1,4.58,0,2.758,2.758,0,0,0,2.755,2.755,2.29,2.29,0,0,1,0,4.58,2.758,2.758,0,0,0-2.755,2.755A2.29,2.29,0,0,1,177.2,52.324Z" transform="translate(-117.717 -37.654)"/><path class="c" d="M280.043,446.874a2.289,2.289,0,0,1-1.62-.671l-5.035-5.036a2.289,2.289,0,0,1,0-3.238l5.035-5.036a2.29,2.29,0,0,1,3.239,0l5.036,5.036a2.289,2.289,0,0,1,0,3.238l-5.036,5.036A2.289,2.289,0,0,1,280.043,446.874Zm-1.8-7.326,1.8,1.8,1.8-1.8-1.8-1.8Z" transform="translate(-173.463 -251.515)"/><path class="b" d="M231.618,457.008a2.282,2.282,0,0,1-1.619-.671l-5.036-5.035a2.29,2.29,0,0,1,0-3.238L230,443.028a2.29,2.29,0,0,1,3.239,0l5.036,5.036a2.29,2.29,0,0,1,0,3.238l-5.036,5.035A2.285,2.285,0,0,1,231.618,457.008Zm-1.8-7.325,1.8,1.8,1.8-1.8-1.8-1.8Z" transform="translate(-147.216 -257.008)"/></g></g></svg>