<svg xmlns="http://www.w3.org/2000/svg" width="45" height="45" viewBox="0 0 45 45"><defs><style>.a,.c{fill:none;}.a{stroke:#000;stroke-linecap:round;stroke-linejoin:round;}.b{stroke:none;}</style></defs><g class="a"><circle class="b" cx="22.5" cy="22.5" r="22.5"/><circle class="c" cx="22.5" cy="22.5" r="22"/></g><path class="a" d="M21,3A9.909,9.909,0,0,1,18.145,4.39,4.073,4.073,0,0,0,11,7.117v.909A9.691,9.691,0,0,1,2.818,3.908S-.818,12.09,7.364,15.726A10.582,10.582,0,0,1,1,17.545c8.182,4.545,18.182,0,18.182-10.455a4.091,4.091,0,0,0-.073-.755A7.018,7.018,0,0,0,21,3Z" transform="translate(11.5 11.51)"/></svg>