<svg xmlns="http://www.w3.org/2000/svg" width="76.941" height="60" viewBox="0 0 76.941 60"><defs><style>.a{fill:#f5f5f5;}.b{fill:#ffc943;}.c{fill:#a5d1fe;}.d{fill:#ffe783;}.e{fill:#ffd5b8;}.f{fill:#424da3;}</style></defs><g transform="translate(0 -61.395)"><path class="a" d="M75.983,95.661a17.7,17.7,0,0,0-10.5-10.85,6.426,6.426,0,0,1-4.146-5.925q0-.087,0-.173A17.739,17.739,0,0,0,29.332,68.6a14.475,14.475,0,0,1-11.583,6q-.2,0-.406,0A18.067,18.067,0,0,0,0,92.1a17.741,17.741,0,0,0,34.4,6.335,3.63,3.63,0,0,1,4.4-2.22l.068.019a3.621,3.621,0,0,1,2.637,3.775,17.741,17.741,0,1,0,34.474-4.347Z" transform="translate(0 0)"/><g transform="translate(6.913 62.288)"><path class="b" d="M424.748,267h-2.591a.925.925,0,0,1-.925-.925v-2.591a.925.925,0,0,1,.925-.925h2.591a.925.925,0,0,1,.925.925v2.591A.925.925,0,0,1,424.748,267Z" transform="translate(-364.843 -233.222)"/><path class="b" d="M64.726,267H62.134a.925.925,0,0,1-.925-.925v-2.591a.925.925,0,0,1,.925-.925h2.591a.925.925,0,0,1,.925.925v2.591A.925.925,0,0,1,64.726,267Z" transform="translate(-58.923 -233.222)"/><path class="b" d="M244.737,72.209h-2.591a.925.925,0,0,1-.925-.925V68.692a.925.925,0,0,1,.925-.925h2.591a.925.925,0,0,1,.925.925v2.591A.926.926,0,0,1,244.737,72.209Z" transform="translate(-211.883 -67.703)"/><path class="b" d="M244.737,72.209h-2.591a.925.925,0,0,1-.925-.925V68.692a.925.925,0,0,1,.925-.925h2.591a.925.925,0,0,1,.925.925v2.591A.926.926,0,0,1,244.737,72.209Z" transform="translate(-211.883 -67.703)"/><circle class="b" cx="2.285" cy="2.285" r="2.285" transform="translate(58.545)"/><circle class="b" cx="2.285" cy="2.285" r="2.285"/></g><path class="c" d="M164.245,216.869l-3.889-1.107a15.5,15.5,0,0,0-1.8-4.345l1.967-3.534a.772.772,0,0,0-.129-.919l-2.658-2.658a.772.772,0,0,0-.919-.129l-3.534,1.967a15.494,15.494,0,0,0-4.345-1.8l-1.107-3.888a.771.771,0,0,0-.741-.56h-3.758a.77.77,0,0,0-.741.56l-1.107,3.888a15.5,15.5,0,0,0-4.345,1.8l-3.534-1.967a.772.772,0,0,0-.919.129l-2.658,2.658a.772.772,0,0,0-.129.919l1.967,3.534a15.5,15.5,0,0,0-1.8,4.345l-3.889,1.107a.771.771,0,0,0-.56.742v3.758a.77.77,0,0,0,.56.741l3.889,1.107a15.5,15.5,0,0,0,1.8,4.345L129.9,231.1a.772.772,0,0,0,.129.919l2.658,2.658a.772.772,0,0,0,.919.129l3.534-1.967a15.5,15.5,0,0,0,4.345,1.8l1.107,3.888a.771.771,0,0,0,.741.56h3.758a.77.77,0,0,0,.741-.56l1.107-3.888a15.5,15.5,0,0,0,4.345-1.8l3.534,1.967a.772.772,0,0,0,.919-.129l2.658-2.658a.772.772,0,0,0,.129-.919l-1.967-3.534a15.494,15.494,0,0,0,1.8-4.345l3.889-1.107a.771.771,0,0,0,.56-.741V217.61A.77.77,0,0,0,164.245,216.869Zm-19.034,10.679a8.059,8.059,0,1,1,8.058-8.059A8.059,8.059,0,0,1,145.211,227.548Z" transform="translate(-106.741 -117.688)"/><path class="b" d="M234.3,133.548v28.8a8.058,8.058,0,0,1-9.326,0v-28.8a3,3,0,0,1,.28-1.268l3.02-6.492a1.5,1.5,0,0,1,2.727,0l3.019,6.492A3.028,3.028,0,0,1,234.3,133.548Z" transform="translate(-191.163 -53.978)"/><path class="d" d="M229.634,188.1v29.424a8.008,8.008,0,0,1-4.663-1.488V188.1Z" transform="translate(-191.163 -107.664)"/><path class="e" d="M228.267,125.79l-3.02,6.491a3.008,3.008,0,0,0-.281,1.269v1.917a3.815,3.815,0,0,0,3.853-.145,1.532,1.532,0,0,1,1.641.013,3.814,3.814,0,0,0,3.832.132V133.55a3.009,3.009,0,0,0-.281-1.269l-3.018-6.491A1.5,1.5,0,0,0,228.267,125.79Z" transform="translate(-191.16 -53.98)"/><path class="c" d="M237.59,125.79l-1.652,3.553a4.757,4.757,0,0,0,6.031,0l-1.652-3.552A1.5,1.5,0,0,0,237.59,125.79Z" transform="translate(-200.482 -53.98)"/><path class="f" d="M102.582,68.413a3.037,3.037,0,1,0-2.939-3.788H76.282V64.08A1.679,1.679,0,0,0,74.6,62.4H72.013a1.679,1.679,0,0,0-1.677,1.677v.544H46.976a3.037,3.037,0,1,0,0,1.5h17.3A27.819,27.819,0,0,0,45.518,91.676h-.555a1.679,1.679,0,0,0-1.677,1.677v2.591a1.679,1.679,0,0,0,1.677,1.677h2.591a1.679,1.679,0,0,0,1.677-1.677V93.352a1.679,1.679,0,0,0-1.677-1.677h-.532A26.3,26.3,0,0,1,70.337,66.294v.377a1.679,1.679,0,0,0,1.677,1.677H74.6a1.679,1.679,0,0,0,1.677-1.677v-.377A26.3,26.3,0,0,1,99.6,91.676h-.532a1.679,1.679,0,0,0-1.677,1.677v2.591a1.679,1.679,0,0,0,1.677,1.677h2.591a1.679,1.679,0,0,0,1.677-1.677V93.353a1.679,1.679,0,0,0-1.677-1.677H101.1A27.82,27.82,0,0,0,82.344,66.127h17.3a3.04,3.04,0,0,0,2.939,2.285ZM47.728,93.352v2.591a.174.174,0,0,1-.174.174H44.962a.174.174,0,0,1-.174-.174V93.352a.174.174,0,0,1,.174-.174h2.591A.174.174,0,0,1,47.728,93.352Zm54.1,0v2.591a.174.174,0,0,1-.174.174H99.065a.174.174,0,0,1-.174-.174V93.352a.174.174,0,0,1,.174-.174h2.591A.174.174,0,0,1,101.83,93.352Zm.751-29.511a1.534,1.534,0,1,1-1.534,1.534A1.536,1.536,0,0,1,102.582,63.842ZM44.037,66.91a1.534,1.534,0,1,1,1.534-1.534A1.536,1.536,0,0,1,44.037,66.91Zm30.742-.238a.174.174,0,0,1-.174.174H72.013a.174.174,0,0,1-.174-.174V64.08a.174.174,0,0,1,.174-.174H74.6a.174.174,0,0,1,.174.174Z" transform="translate(-34.838 -0.803)"/><path class="d" d="M44.7,132.033a.751.751,0,0,1-.751-.751.9.9,0,0,0-.9-.9.751.751,0,0,1,0-1.5.9.9,0,0,0,.9-.9.751.751,0,1,1,1.5,0,.9.9,0,0,0,.9.9.751.751,0,0,1,0,1.5.9.9,0,0,0-.9.9.751.751,0,0,1-.751.751Z" transform="translate(-35.941 -55.939)"/><path class="c" d="M331.927,159.919a.751.751,0,0,1-.751-.751.9.9,0,0,0-.9-.9.751.751,0,1,1,0-1.5.9.9,0,0,0,.9-.9.751.751,0,0,1,1.5,0,.9.9,0,0,0,.9.9.751.751,0,0,1,0,1.5.9.9,0,0,0-.9.9A.752.752,0,0,1,331.927,159.919Z" transform="translate(-280.004 -79.634)"/><path class="b" d="M88.174,410.807a.748.748,0,0,1-.531-.22l-1.652-1.652a.751.751,0,0,1,0-1.062l1.652-1.652a.751.751,0,0,1,1.062,0l1.652,1.652a.751.751,0,0,1,0,1.063L88.7,410.587A.749.749,0,0,1,88.174,410.807Zm-.59-2.4.59.589.59-.589-.59-.59Z" transform="translate(-72.881 -292.82)"/><path class="b" d="M418.99,331.3a.748.748,0,0,1-.531-.22l-1.652-1.652a.751.751,0,0,1,0-1.062l1.652-1.652a.751.751,0,0,1,1.062,0l1.652,1.652a.751.751,0,0,1,0,1.062l-1.652,1.652A.749.749,0,0,1,418.99,331.3Zm-.589-2.4.589.59.59-.59-.59-.59Z" transform="translate(-353.983 -225.26)"/></g></svg>