<svg xmlns="http://www.w3.org/2000/svg" width="68.267" height="60" viewBox="0 0 68.267 60"><defs><style>.a{fill:#f5f5f5;}.b{fill:#424da3;}.c{fill:#a5d1fe;}.d{fill:#ffc943;}</style></defs><g transform="translate(0 -38.999)"><path class="a" d="M51.014,87.984h-.077a14.772,14.772,0,0,1-11.125-5.065A22.646,22.646,0,0,0,22.6,75.134a22.7,22.7,0,0,0,.1,45.4,22.6,22.6,0,0,0,9.806-2.223,7.57,7.57,0,0,1,7.862.821A17.357,17.357,0,1,0,51.014,87.984Z" transform="translate(0 -31.316)"/><path class="b" d="M228.785,202.813l-4.019-1.144a16.013,16.013,0,0,0-1.861-4.49l2.033-3.652a.8.8,0,0,0-.133-.95l-2.747-2.747a.8.8,0,0,0-.95-.133l-3.652,2.033a16.014,16.014,0,0,0-4.49-1.861l-1.144-4.019a.8.8,0,0,0-.766-.578h-3.884a.8.8,0,0,0-.766.578l-1.144,4.019a16.013,16.013,0,0,0-4.49,1.861l-3.652-2.033a.8.8,0,0,0-.95.133l-2.747,2.747a.8.8,0,0,0-.133.95l2.033,3.652a16.012,16.012,0,0,0-1.861,4.49l-4.019,1.144a.8.8,0,0,0-.578.766v3.884a.8.8,0,0,0,.578.766l4.019,1.144a16.013,16.013,0,0,0,1.861,4.49l-2.033,3.652a.8.8,0,0,0,.133.95l2.747,2.747a.8.8,0,0,0,.95.133l3.652-2.033a16.011,16.011,0,0,0,4.49,1.861l1.144,4.019a.8.8,0,0,0,.766.578h3.884a.8.8,0,0,0,.766-.578l1.144-4.019a16.013,16.013,0,0,0,4.49-1.861l3.652,2.033a.8.8,0,0,0,.95-.133l2.747-2.747a.8.8,0,0,0,.133-.95l-2.033-3.652a16.013,16.013,0,0,0,1.861-4.49l4.019-1.144a.8.8,0,0,0,.578-.766V203.58A.8.8,0,0,0,228.785,202.813Zm-19.67,12.675a9.967,9.967,0,1,1,9.967-9.967,9.968,9.968,0,0,1-9.967,9.967Z" transform="translate(-163.685 -126.771)"/><path class="c" d="M40.961,209.2l-2.17-.618a8.648,8.648,0,0,0-1-2.425l1.1-1.972a.431.431,0,0,0-.072-.513l-1.483-1.483a.431.431,0,0,0-.513-.072l-1.972,1.1a8.647,8.647,0,0,0-2.425-1l-.618-2.17a.43.43,0,0,0-.414-.312h-2.1a.43.43,0,0,0-.414.312l-.618,2.17a8.648,8.648,0,0,0-2.425,1l-1.972-1.1a.431.431,0,0,0-.513.072l-1.483,1.483a.431.431,0,0,0-.072.513l1.1,1.972a8.648,8.648,0,0,0-1,2.425l-2.17.618a.43.43,0,0,0-.312.414v2.1a.43.43,0,0,0,.312.414l2.17.618a8.648,8.648,0,0,0,1,2.425l-1.1,1.972a.431.431,0,0,0,.072.513l1.483,1.483a.431.431,0,0,0,.513.072l1.972-1.1a8.648,8.648,0,0,0,2.425,1l.618,2.17a.43.43,0,0,0,.414.312h2.1a.43.43,0,0,0,.414-.312l.618-2.17a8.648,8.648,0,0,0,2.425-1l1.972,1.1a.431.431,0,0,0,.513-.072l1.483-1.483a.431.431,0,0,0,.072-.513l-1.1-1.972a8.646,8.646,0,0,0,1-2.425l2.17-.618a.43.43,0,0,0,.312-.414v-2.1a.43.43,0,0,0-.312-.414ZM30.34,214.1a3.439,3.439,0,1,1,3.439-3.439A3.439,3.439,0,0,1,30.34,214.1Z" transform="translate(-16.819 -139.296)"/><path class="d" d="M139.616,49.2l-2.337-.665a9.312,9.312,0,0,0-1.082-2.611L137.38,43.8a.464.464,0,0,0-.077-.553l-1.6-1.6a.464.464,0,0,0-.553-.077l-2.124,1.182a9.312,9.312,0,0,0-2.611-1.082l-.665-2.337a.463.463,0,0,0-.446-.336h-2.258a.463.463,0,0,0-.446.336l-.665,2.337a9.312,9.312,0,0,0-2.611,1.082L121.2,41.572a.464.464,0,0,0-.553.077l-1.6,1.6a.464.464,0,0,0-.077.553l1.182,2.124a9.311,9.311,0,0,0-1.082,2.611l-2.337.665a.463.463,0,0,0-.336.446V51.9a.463.463,0,0,0,.336.446l2.337.665a9.311,9.311,0,0,0,1.082,2.611l-1.182,2.124a.464.464,0,0,0,.077.553l1.6,1.6a.464.464,0,0,0,.553.077l2.124-1.182a9.308,9.308,0,0,0,2.611,1.082l.665,2.337a.463.463,0,0,0,.446.336h2.258a.463.463,0,0,0,.446-.336l.665-2.337a9.312,9.312,0,0,0,2.611-1.082l2.124,1.182a.464.464,0,0,0,.553-.077l1.6-1.6a.464.464,0,0,0,.077-.553L136.2,55.625a9.311,9.311,0,0,0,1.082-2.611l2.337-.665a.463.463,0,0,0,.336-.446V49.644A.463.463,0,0,0,139.616,49.2Zm-11.438,6.155a4.58,4.58,0,1,1,4.58-4.58A4.58,4.58,0,0,1,128.178,55.354Z" transform="translate(-100.884)"/><path class="d" d="M139.1,384.327a.665.665,0,0,1-.471-.2l-1.467-1.467a.667.667,0,0,1,0-.943l1.467-1.467a.667.667,0,0,1,.943,0l1.467,1.467a.667.667,0,0,1,0,.943l-1.467,1.467A.666.666,0,0,1,139.1,384.327Zm-.524-2.133.524.524.524-.524-.524-.524Z" transform="translate(-118.708 -295.586)"/><path class="d" d="M338.642,120.58a.667.667,0,0,1-.667-.667.8.8,0,0,0-.8-.8.667.667,0,0,1,0-1.333.8.8,0,0,0,.8-.8.667.667,0,1,1,1.333,0,.8.8,0,0,0,.8.8.667.667,0,1,1,0,1.333.8.8,0,0,0-.8.8A.667.667,0,0,1,338.642,120.58Z" transform="translate(-291.641 -67.005)"/><path class="c" d="M169.545,433.913a.667.667,0,0,1-.667-.667.8.8,0,0,0-.8-.8.667.667,0,1,1,0-1.333.8.8,0,0,0,.8-.8.667.667,0,0,1,1.333,0,.8.8,0,0,0,.8.8.667.667,0,1,1,0,1.333.8.8,0,0,0-.8.8A.667.667,0,0,1,169.545,433.913Z" transform="translate(-145.09 -338.561)"/><path class="c" d="M61.749,145.222a.667.667,0,0,1-.667-.667.8.8,0,0,0-.8-.8.667.667,0,1,1,0-1.333.8.8,0,0,0,.8-.8.667.667,0,0,1,1.333,0,.8.8,0,0,0,.8.8.667.667,0,1,1,0,1.333.8.8,0,0,0-.8.8A.667.667,0,0,1,61.749,145.222Z" transform="translate(-51.667 -88.362)"/></g></svg>