<svg xmlns="http://www.w3.org/2000/svg" width="70.347" height="60" viewBox="0 0 70.347 60"><defs><style>.a{fill:#f5f5f5;}.b{fill:#fff;}.c{fill:#a5d1fe;}.d{fill:#ffc943;}.e{fill:#424da3;}.f{fill:#ffe783;}</style></defs><g transform="translate(0 -37.654)"><path class="a" d="M69.472,95.224a16.183,16.183,0,0,0-9.6-9.92,5.876,5.876,0,0,1-3.79-5.417q0-.079,0-.159a16.219,16.219,0,0,0-29.263-9.247A13.234,13.234,0,0,1,16.227,75.97q-.185,0-.371,0A16.518,16.518,0,0,0,0,91.967a16.221,16.221,0,0,0,31.453,5.792,3.319,3.319,0,0,1,4.023-2.03l.063.017A3.311,3.311,0,0,1,37.952,99.2a16.22,16.22,0,1,0,31.52-3.974Z" transform="translate(0 -22.635)"/><path class="b" d="M110.959,101.727v39.055a2.062,2.062,0,0,1-2.061,2.061H58.061A2.062,2.062,0,0,1,56,140.782V101.727a2.062,2.062,0,0,1,2.061-2.061H108.9a2.062,2.062,0,0,1,2.061,2.061Z" transform="translate(-48.306 -53.492)"/><path class="c" d="M110.959,106.285v-4.558a2.061,2.061,0,0,0-2.061-2.061H58.061A2.061,2.061,0,0,0,56,101.727v4.558Z" transform="translate(-48.306 -53.492)"/><path class="d" d="M116.76,296.456h-2.2a.412.412,0,0,1-.412-.412V283.559a.412.412,0,0,1,.412-.412h2.2a.412.412,0,0,1,.412.412v12.485A.412.412,0,0,1,116.76,296.456Z" transform="translate(-98.465 -211.763)"/><path class="c" d="M84.048,342.354h-2.2a.412.412,0,0,1-.412-.412v-5.174a.412.412,0,0,1,.412-.412h2.2a.412.412,0,0,1,.412.412v5.174A.412.412,0,0,1,84.048,342.354Z" transform="translate(-70.248 -257.661)"/><path class="c" d="M149.473,333.139h-2.2a.412.412,0,0,1-.412-.412v-6.642a.412.412,0,0,1,.412-.412h2.2a.412.412,0,0,1,.412.412v6.642A.412.412,0,0,1,149.473,333.139Z" transform="translate(-126.683 -248.446)"/><path class="d" d="M182.186,291.28h-2.2a.412.412,0,0,1-.412-.412V277.559a.412.412,0,0,1,.412-.412h2.2a.412.412,0,0,1,.412.412v13.309A.412.412,0,0,1,182.186,291.28Z" transform="translate(-154.902 -206.587)"/><path class="c" d="M214.9,302.085h-2.2a.412.412,0,0,1-.412-.412V290.085a.412.412,0,0,1,.412-.412h2.2a.412.412,0,0,1,.412.412v11.588A.412.412,0,0,1,214.9,302.085Z" transform="translate(-183.119 -217.392)"/><path class="d" d="M247.611,270.578h-2.2a.412.412,0,0,1-.412-.412V253.559a.412.412,0,0,1,.412-.412h2.2a.412.412,0,0,1,.412.412v16.607A.412.412,0,0,1,247.611,270.578Z" transform="translate(-211.338 -185.885)"/><path class="c" d="M280.324,307.261h-2.2a.412.412,0,0,1-.412-.412V296.085a.412.412,0,0,1,.412-.412h2.2a.412.412,0,0,1,.412.412v10.764A.412.412,0,0,1,280.324,307.261Z" transform="translate(-239.556 -222.568)"/><path class="d" d="M313.036,265.4h-2.2a.412.412,0,0,1-.412-.412V247.559a.412.412,0,0,1,.412-.412h2.2a.412.412,0,0,1,.412.412V264.99A.412.412,0,0,1,313.036,265.4Z" transform="translate(-267.773 -180.709)"/><path class="c" d="M345.749,276.207h-2.2a.412.412,0,0,1-.412-.412v-15.71a.412.412,0,0,1,.412-.412h2.2a.412.412,0,0,1,.412.412V275.8A.412.412,0,0,1,345.749,276.207Z" transform="translate(-295.992 -191.514)"/><path class="d" d="M378.462,255.5h-2.2a.412.412,0,0,1-.412-.412V236.085a.412.412,0,0,1,.412-.412h2.2a.412.412,0,0,1,.412.412v19.007A.412.412,0,0,1,378.462,255.5Z" transform="translate(-324.21 -170.812)"/><path class="c" d="M411.174,213.646h-2.2a.412.412,0,0,1-.412-.412V187.559a.412.412,0,0,1,.412-.412h2.2a.412.412,0,0,1,.412.412v25.675A.412.412,0,0,1,411.174,213.646Z" transform="translate(-352.428 -128.953)"/><path class="e" d="M120.685,180.038a2.282,2.282,0,1,0-3.912,1.6,2.274,2.274,0,0,0-.653,1.6.687.687,0,0,0,1.374,0,.908.908,0,1,1,1.817,0,.687.687,0,0,0,1.374,0,2.274,2.274,0,0,0-.653-1.6A2.274,2.274,0,0,0,120.685,180.038Zm-2.282-.908a.908.908,0,1,1-.908.908A.909.909,0,0,1,118.4,179.13Z" transform="translate(-100.165 -120.852)"/><path class="e" d="M220.534,188.028H232.9a.7.7,0,1,0,0-1.408H220.534a.7.7,0,0,0,0,1.408Z" transform="translate(-189.626 -128.499)"/><path class="e" d="M170.648,188.028h3.377a.7.7,0,1,0,0-1.408h-3.377a.7.7,0,1,0,0,1.408Z" transform="translate(-146.594 -128.499)"/><path class="e" d="M170.648,208.347h19.217a.7.7,0,0,0,0-1.408H170.648a.7.7,0,0,0,0,1.408Z" transform="translate(-146.594 -146.026)"/><circle class="e" cx="0.768" cy="0.768" r="0.768" transform="translate(16.076 65.024)"/><circle class="e" cx="0.768" cy="0.768" r="0.768" transform="translate(18.399 65.024)"/><circle class="e" cx="0.768" cy="0.768" r="0.768" transform="translate(20.723 65.024)"/><path class="c" d="M367.036,55.678a.687.687,0,0,1-.687-.687.828.828,0,0,0-.827-.827.687.687,0,0,1,0-1.374.827.827,0,0,0,.827-.827.687.687,0,1,1,1.374,0,.828.828,0,0,0,.827.827.687.687,0,0,1,0,1.374.827.827,0,0,0-.827.827A.687.687,0,0,1,367.036,55.678Z" transform="translate(-314.708 -11.751)"/><path class="f" d="M172.067,42.055a.687.687,0,0,1-.687-.687.828.828,0,0,0-.827-.827.687.687,0,0,1,0-1.374.827.827,0,0,0,.827-.827.687.687,0,0,1,1.374,0,.828.828,0,0,0,.827.827.687.687,0,0,1,0,1.374.827.827,0,0,0-.827.827A.687.687,0,0,1,172.067,42.055Z" transform="translate(-146.527)"/><path class="d" d="M274.915,436.618a.687.687,0,0,1-.486-.2l-1.511-1.511a.687.687,0,0,1,0-.971l1.511-1.511a.687.687,0,0,1,.972,0l1.511,1.511a.687.687,0,0,1,0,.971l-1.511,1.511A.687.687,0,0,1,274.915,436.618Zm-.539-2.2.539.539.539-.539-.539-.539Z" transform="translate(-235.247 -340.357)"/><path class="c" d="M226.49,446.752a.685.685,0,0,1-.486-.2l-1.511-1.511a.687.687,0,0,1,0-.971L226,442.558a.687.687,0,0,1,.972,0l1.511,1.511a.687.687,0,0,1,0,.972l-1.511,1.511A.685.685,0,0,1,226.49,446.752Zm-.539-2.2.539.539.539-.539-.539-.539Z" transform="translate(-193.475 -349.098)"/></g></svg>