<svg xmlns="http://www.w3.org/2000/svg" width="210" height="120.001" viewBox="0 0 210 120.001">
    <g transform="translate(25.938 19.982)">
        <path fill="#f5f5f5" d="M40.651,170.726q.983.751,2.01,1.46c.115.081.234.159.351.241a72.045,72.045,0,0,0,7.675,4.506l.5.253c.121.064.239.122.365.181,2.789,1.4,5.681,2.688,8.609,3.908l.031.014.221.091q3.541,1.476,7.189,2.824l.058.019q1.645.6,3.289,1.172c.448.159.9.307,1.347.457.846.281,1.694.558,2.549.823l.106.035.183.056.228.073q3.346,1.039,6.781,1.919l.04.01q2.4.607,4.822,1.123l.221.048c2.376.5,4.79.928,7.218,1.271l.559.078q2.664.364,5.365.594c10.122.85,20.364.159,30.424-1.026,20.313-2.4,40.358-6.886,58.639-13.924q5.263-2.025,10.321-4.336c.027-.013.051-.025.079-.037q3.028-1.384,5.974-2.883c.576-.289,1.148-.585,1.716-.882q1.049-.55,2.089-1.112,1.371-.743,2.741-1.523l.428-.248.164-.1c.232-.135.461-.27.691-.407,8.589-5.083,16.247-11.243,19.866-18.951a18.975,18.975,0,0,0-8.85-25.43,45.392,45.392,0,0,0-11.878-3.606l-.428-.083c-.707-.135-1.414-.265-2.118-.4-2.465-.454-4.943-.905-7.4-1.409h0c-1.279-.262-2.546-.537-3.8-.834l-.515-.124a68,68,0,0,1-8.883-2.719h-.018q-.463-.179-.914-.37c-.194-.079-.387-.159-.581-.246a34.9,34.9,0,0,1-8.927-5.428c-.2-.178-.4-.359-.592-.54-.148-.141-.294-.284-.435-.427a10.32,10.32,0,0,1-3.236-5.914h0a6.644,6.644,0,0,1,.11-2.133c.287-1.333.565-2.637.769-3.909a17.455,17.455,0,0,0-.018-6.879h0a12.546,12.546,0,0,0-4.1-6.5q-.528-.477-1.138-.953a24.742,24.742,0,0,0-6.328-3.475l-.861-.318c-6.41-2.256-14.113-2.726-21.309-2.414a132.747,132.747,0,0,0-19.966,2.414c-.521.1-1.042.208-1.559.318A154.126,154.126,0,0,0,104.081,79.5,216.593,216.593,0,0,0,64.643,97.387l-.365.206q-.771.437-1.533.877-1.475.85-2.924,1.711l-.652.386q-.482.286-.959.573l-.979.589h0a1.09,1.09,0,0,0-.132.081l-.833.5c-.482.292-.961.586-1.442.882h0l-1.031.635c-.214.133-.429.265-.643.4l-1.1.7-.245.159c-.051.032-.1.064-.152.1l-.031.017c-2.971,1.895-5.871,3.86-8.589,5.942l-.351.27-.037.029c-.3.229-.592.461-.883.694a54.855,54.855,0,0,0-9.327,9.162C20.5,136.705,24.045,158.039,40.651,170.726Z" transform="translate(-51.328 -92.239)"/>
        <path fill="#aaddbd9" d="M402.339,303.088l-6.2-6.236a3.293,3.293,0,0,0-4.677-.032l-38.941,38.612-16.465-16.594a3.284,3.284,0,0,0-4.643-.033l-6.268,6.2a3.328,3.328,0,0,0-.032,4.677l25.005,25.2a3.328,3.328,0,0,0,4.677.033L402.3,307.763a3.293,3.293,0,0,0,.035-4.675Z" transform="translate(-285.104 -285.845)"/>
    </g>
</svg>