<svg xmlns="http://www.w3.org/2000/svg" xmlns:xlink="http://www.w3.org/1999/xlink" viewBox="0 0 794 274.87"><defs><style>.cls-1{fill:url(#linear-gradient);}.cls-2{isolation:isolate;}.cls-18,.cls-3{fill:#fff;}.cls-4{fill:url(#linear-gradient-2);}.cls-5{mask:url(#mask);}.cls-6{fill:#00c3e1;}.cls-7,.cls-8{opacity:0.53;}.cls-16,.cls-17,.cls-7,.cls-8,.cls-9{mix-blend-mode:overlay;}.cls-7{fill:url(#linear-gradient-3);}.cls-8{fill:url(#linear-gradient-4);}.cls-9{opacity:0.46;fill:url(#linear-gradient-5);}.cls-10{opacity:0.21;fill:url(#linear-gradient-6);}.cls-11{opacity:0.89;}.cls-12,.cls-13,.cls-14{opacity:0.91;}.cls-12{fill:url(#linear-gradient-7);}.cls-13{fill:url(#linear-gradient-8);}.cls-14,.cls-15{fill:#00e2e1;}.cls-15{opacity:0.66;}.cls-16{opacity:0.5;fill:url(#linear-gradient-9);}.cls-17{opacity:0.26;fill:url(#linear-gradient-10);}.cls-18{font-size:24px;font-family:Gotham-Bold, Gotham;font-weight:700;}.cls-19{letter-spacing:-0.02em;}.cls-20{letter-spacing:-0.01em;}.cls-21{letter-spacing:-0.02em;}</style><linearGradient id="linear-gradient" x1="575.63" y1="106.12" x2="654.27" y2="213.96" gradientTransform="translate(228.78 -347.35) rotate(38.67)" gradientUnits="userSpaceOnUse"><stop offset="0.13" stop-color="#fff"/><stop offset="0.33" stop-color="#b9b9b9"/><stop offset="0.63" stop-color="#575757"/><stop offset="0.84" stop-color="#181818"/><stop offset="0.94"/></linearGradient><linearGradient id="linear-gradient-2" x1="397.72" y1="339.71" x2="394.16" y2="-656.05" gradientUnits="userSpaceOnUse"><stop offset="0" stop-color="#151166"/><stop offset="0.45" stop-color="#0b5f9e"/><stop offset="0.82" stop-color="#0399c8"/><stop offset="1" stop-color="#00afd8"/></linearGradient><mask id="mask" x="531.29" y="74.29" width="156" height="156" maskUnits="userSpaceOnUse"><circle class="cls-1" cx="609.29" cy="152.29" r="78" transform="translate(38.45 414.14) rotate(-38.67)"/></mask><linearGradient id="linear-gradient-3" x1="1176.39" y1="-1626.8" x2="1078.07" y2="-1629.8" gradientTransform="translate(-1359.62 334.69) rotate(51.32)" gradientUnits="userSpaceOnUse"><stop offset="0" stop-color="#1e256b" stop-opacity="0"/><stop offset="1" stop-color="#1e256b"/></linearGradient><linearGradient id="linear-gradient-4" x1="1149.81" y1="-1594.29" x2="1120.43" y2="-1602.38" xlink:href="#linear-gradient-3"/><linearGradient id="linear-gradient-5" x1="1030.71" y1="-1708.81" x2="1069.31" y2="-1670.21" gradientTransform="translate(-1359.62 334.69) rotate(51.32)" gradientUnits="userSpaceOnUse"><stop offset="0" stop-color="#25e7f8" stop-opacity="0"/><stop offset="1" stop-color="#25e7f8"/></linearGradient><linearGradient id="linear-gradient-6" x1="1021.86" y1="-1686.09" x2="1062.63" y2="-1713.67" gradientTransform="translate(-1359.62 334.69) rotate(51.32)" gradientUnits="userSpaceOnUse"><stop offset="0.09" stop-color="#fff" stop-opacity="0"/><stop offset="1" stop-color="#fff"/></linearGradient><linearGradient id="linear-gradient-7" x1="-1719.26" y1="309.12" x2="-1711.77" y2="204.13" gradientTransform="matrix(-1, 0, 0, 1, -1295.5, 0)" gradientUnits="userSpaceOnUse"><stop offset="0.21" stop-color="#00afe1"/><stop offset="0.62" stop-color="#44d8e9"/><stop offset="1" stop-color="#80fdf0"/></linearGradient><linearGradient id="linear-gradient-8" x1="-1376.89" y1="545.87" x2="-1337.99" y2="303.62" gradientTransform="matrix(-0.93, 0.36, 0.36, 0.93, -769.46, 304.78)" xlink:href="#linear-gradient-7"/><linearGradient id="linear-gradient-9" x1="-642.73" y1="-3262.59" x2="-642.73" y2="-3353.3" gradientTransform="translate(-576.44 -3234.1) rotate(180)" gradientUnits="userSpaceOnUse"><stop offset="0" stop-color="#fff"/><stop offset="0.02" stop-color="#fff" stop-opacity="0.97"/><stop offset="0.27" stop-color="#fff" stop-opacity="0.63"/><stop offset="0.48" stop-color="#fff" stop-opacity="0.36"/><stop offset="0.66" stop-color="#fff" stop-opacity="0.16"/><stop offset="0.8" stop-color="#fff" stop-opacity="0.04"/><stop offset="0.88" stop-color="#fff" stop-opacity="0"/></linearGradient><linearGradient id="linear-gradient-10" x1="-634.03" y1="-3248.91" x2="-634.03" y2="-3296.46" gradientTransform="translate(-598.82 -3217.62) rotate(180)" xlink:href="#linear-gradient-9"/></defs><title>frase.1</title><g class="cls-2"><g id="Capa_2" data-name="Capa 2"><g id="OBJECTS"><rect class="cls-3" y="1.87" width="794" height="273"/><rect class="cls-4" y="1.87" width="794" height="273"/><g class="cls-5"><circle class="cls-6" cx="609.29" cy="151.71" r="75.8" transform="translate(38.81 414.01) rotate(-38.67)"/><path class="cls-7" d="M676.1,187.56a22.84,22.84,0,0,1-14.67-1.8c-12.17-5.61-20.32-16.75-32-22.74-12.55-6.08-26.87-3.83-39.79,1.13-16.57,7.12-36.79,12.56-51.68.67q-2-1.5-3.78-3.1a75.83,75.83,0,0,0,142,25.84Z"/><path class="cls-8" d="M593.36,199.54c-10,1.88-18.44,8.62-29,7.87a26.39,26.39,0,0,1-8.8-2.26,75.87,75.87,0,0,0,77.28,18.63C628,208.43,610.61,197.21,593.36,199.54Z"/><path class="cls-9" d="M645.17,136.19c24-2.31,30.12-17.55,26.45-27.64q-1.49-2.15-3.14-4.22A75.8,75.8,0,0,0,561.93,92.53q-2.67,2.14-5.1,4.47C609.94,110.63,612.56,139.34,645.17,136.19Z"/><path class="cls-10" d="M599.14,89.71c13.58-3.19,25.28,2.8,36.89,9.63,5.24,2.71,13,1.87,17-3.66a11.88,11.88,0,0,0,1.33-4.92A76,76,0,0,0,585.86,79.6c.39,1,.83,1.92,1.29,2.81C590.06,87,593.9,90.84,599.14,89.71Z"/></g><path class="cls-3" d="M362.38,249.05a6.71,6.71,0,0,0-4.73-4.73c-.73-.22-.73-.4,0-.61a6.71,6.71,0,0,0,4.73-4.73c.22-.73.4-.73.61,0a6.71,6.71,0,0,0,4.73,4.73c.73.22.73.4,0,.61a6.71,6.71,0,0,0-4.73,4.73C362.77,249.78,362.59,249.78,362.38,249.05Z"/><path class="cls-3" d="M152.71,223a6.71,6.71,0,0,0-4.73-4.73c-.73-.22-.73-.4,0-.61a6.71,6.71,0,0,0,4.73-4.73c.22-.73.4-.73.61,0a6.71,6.71,0,0,0,4.73,4.73c.73.22.73.4,0,.61a6.71,6.71,0,0,0-4.73,4.73C153.11,223.72,152.93,223.72,152.71,223Z"/><path class="cls-3" d="M186.89,50.62a2.69,2.69,0,0,0-1.9-1.9c-.29-.09-.29-.16,0-.25a2.69,2.69,0,0,0,1.9-1.9c.09-.29.16-.29.25,0a2.69,2.69,0,0,0,1.9,1.9c.29.09.29.16,0,.25a2.69,2.69,0,0,0-1.9,1.9C187.05,50.91,187,50.91,186.89,50.62Z"/><path class="cls-3" d="M259.89,21.62a2.69,2.69,0,0,0-1.9-1.9c-.29-.09-.29-.16,0-.25a2.69,2.69,0,0,0,1.9-1.9c.09-.29.16-.29.25,0a2.69,2.69,0,0,0,1.9,1.9c.29.09.29.16,0,.25a2.69,2.69,0,0,0-1.9,1.9C260.05,21.91,260,21.91,259.89,21.62Z"/><path class="cls-3" d="M561.49,39.88a6.71,6.71,0,0,0-4.73-4.73c-.73-.22-.73-.4,0-.61a6.71,6.71,0,0,0,4.73-4.73c.22-.73.4-.73.61,0a6.71,6.71,0,0,0,4.73,4.73c.73.22.73.4,0,.61a6.71,6.71,0,0,0-4.73,4.73C561.89,40.6,561.71,40.6,561.49,39.88Z"/><path class="cls-3" d="M523.27,170.91a6.71,6.71,0,0,0-4.73-4.73c-.73-.22-.73-.4,0-.61a6.71,6.71,0,0,0,4.73-4.73c.22-.73.4-.73.61,0a6.71,6.71,0,0,0,4.73,4.73c.73.22.73.4,0,.61a6.71,6.71,0,0,0-4.73,4.73C523.67,171.64,523.49,171.64,523.27,170.91Z"/><path class="cls-3" d="M722.16,98.91a6.71,6.71,0,0,0-4.73-4.73c-.73-.22-.73-.4,0-.61a6.71,6.71,0,0,0,4.73-4.73c.22-.73.4-.73.61,0a6.71,6.71,0,0,0,4.73,4.73c.73.22.73.4,0,.61a6.71,6.71,0,0,0-4.73,4.73C722.55,99.64,722.37,99.64,722.16,98.91Z"/><path class="cls-3" d="M79,236.2,35,258.38a2.48,2.48,0,1,1-2.23-4.44l.22-.1,46-17.9a.14.14,0,0,1,.11.25Z"/><path class="cls-3" d="M492.26,64.22,448.19,86.4A2.48,2.48,0,1,1,446,82l.22-.1,46-17.9a.14.14,0,0,1,.11.25Z"/><path class="cls-3" d="M666.62,97.55l-72.55,33.89a1.55,1.55,0,1,1-1.31-2.81l.05,0,73.74-31.22a.09.09,0,0,1,.07.16Z"/><path class="cls-3" d="M684.7,103.48l-35.62,18.42a2.49,2.49,0,0,1-2.28-4.42l.27-.12,37.53-14.14a.14.14,0,0,1,.11.25Z"/><g class="cls-11"><path class="cls-12" d="M313.58,263.08a30.52,30.52,0,0,1,14.26,3.52,40.89,40.89,0,0,1,77.57-17.13,30.67,30.67,0,0,1,40.47-4.08A53.91,53.91,0,0,1,498,205.82c29.81,0,54,24,54,53.51a53.06,53.06,0,0,1-2.32,15.54H289.43A30.52,30.52,0,0,1,313.58,263.08Z"/><path class="cls-13" d="M528.93,272.14a37.12,37.12,0,0,1,17.56-2.21c-9.45-24.72,3.05-52.37,28.17-62a49.85,49.85,0,0,1,51.33,9.6,36.31,36.31,0,0,1,20.94-20.66,37.17,37.17,0,0,1,22.69-1.27,63.78,63.78,0,0,1,41-66.39c32.79-12.56,69.63,2.82,83.36,34.37v111.3H518.3C521.37,272.27,524.93,273.67,528.93,272.14Z"/><path class="cls-14" d="M506.31,274.87a28,28,0,0,1,51.29-7.29,48.23,48.23,0,0,1,79.69-.68,62.86,62.86,0,0,1,95.1-37.39,79.52,79.52,0,0,1,36.53-77.35A58.72,58.72,0,0,1,777.84,45.9a27.48,27.48,0,0,1-7.19-18.56A27.8,27.8,0,0,1,794,0V274.87Z"/></g><path class="cls-15" d="M240.7,269.16a14.78,14.78,0,0,1,6.91,1.71,19.81,19.81,0,0,1,37.58-8.3,14.86,14.86,0,0,1,19.61-2,26.17,26.17,0,0,1,51.39,6.76,25.71,25.71,0,0,1-1.12,7.53H229A14.79,14.79,0,0,1,240.7,269.16Z"/><circle class="cls-16" cx="66.28" cy="73.82" r="45.35" transform="translate(-32.79 68.49) rotate(-45)"/><circle class="cls-17" cx="35.2" cy="55.03" r="23.78" transform="translate(-28.61 41.01) rotate(-45)"/><text class="cls-18" transform="translate(27 143.6)">Si cabe en tu men<tspan class="cls-19" x="217.27" y="0">t</tspan><tspan class="cls-20" x="226.87" y="0">e</tspan><tspan x="241.34" y="0">, cabe en tu mund</tspan><tspan class="cls-21" x="459.3" y="0">o</tspan><tspan x="474.76" y="0">.</tspan></text></g></g></g></svg>