<svg xmlns="http://www.w3.org/2000/svg" width="780" height="990" viewBox="0 0 780 990"><defs><style>.a{fill:#f5f5f5;}.b{fill:#ffc943;}.c{fill:#a5d1fe;}.d{fill:#ffe783;}.e{fill:#ffd5b8;}.f{fill:#424da3;}.g{fill:#fff;}</style></defs><g transform="translate(-1140 -90)"><path class="a" d="M165,15H945v990H165Z" transform="translate(975 75)"/><g transform="translate(1212.514 367.994)"><g transform="translate(29.092 64.517)"><path class="b" d="M432.981,277.4h-8.658a3.092,3.092,0,0,1-3.092-3.092v-8.658a3.092,3.092,0,0,1,3.092-3.092h8.658a3.092,3.092,0,0,1,3.092,3.092v8.658A3.092,3.092,0,0,1,432.981,277.4Z" transform="translate(-232.826 -164.538)"/><path class="b" d="M72.959,277.4H64.3a3.092,3.092,0,0,1-3.092-3.092v-8.658a3.092,3.092,0,0,1,3.092-3.092h8.658a3.092,3.092,0,0,1,3.092,3.092v8.658A3.092,3.092,0,0,1,72.959,277.4Z" transform="translate(-53.572 -164.538)"/><path class="b" d="M252.97,82.61h-8.658a3.092,3.092,0,0,1-3.092-3.092V70.859a3.092,3.092,0,0,1,3.092-3.092h8.658a3.092,3.092,0,0,1,3.092,3.092v8.658A3.092,3.092,0,0,1,252.97,82.61Z" transform="translate(-143.199 -67.552)"/><path class="b" d="M252.97,82.61h-8.658a3.092,3.092,0,0,1-3.092-3.092V70.859a3.092,3.092,0,0,1,3.092-3.092h8.658a3.092,3.092,0,0,1,3.092,3.092v8.658A3.092,3.092,0,0,1,252.97,82.61Z" transform="translate(-143.199 -67.552)"/><circle class="b" cx="7.636" cy="7.636" r="7.636" transform="translate(195.612)"/><circle class="b" cx="7.636" cy="7.636" r="7.636"/></g><path class="c" d="M254.68,256.606l-12.993-3.7a51.776,51.776,0,0,0-6.016-14.517l6.574-11.808a2.578,2.578,0,0,0-.43-3.072l-8.88-8.88a2.578,2.578,0,0,0-3.072-.43l-11.808,6.574a51.769,51.769,0,0,0-14.517-6.016l-3.7-12.992a2.575,2.575,0,0,0-2.477-1.87H184.806a2.574,2.574,0,0,0-2.477,1.87l-3.7,12.992a51.779,51.779,0,0,0-14.517,6.016L152.3,214.2a2.578,2.578,0,0,0-3.072.43l-8.88,8.88a2.578,2.578,0,0,0-.43,3.072L146.5,238.39a51.772,51.772,0,0,0-6.016,14.517l-12.992,3.7a2.575,2.575,0,0,0-1.87,2.478V271.64a2.574,2.574,0,0,0,1.87,2.477l12.992,3.7a51.777,51.777,0,0,0,6.016,14.517l-6.574,11.808a2.578,2.578,0,0,0,.43,3.072l8.88,8.88a2.578,2.578,0,0,0,3.072.43l11.808-6.573a51.773,51.773,0,0,0,14.517,6.016l3.7,12.992a2.574,2.574,0,0,0,2.477,1.87h12.556a2.574,2.574,0,0,0,2.477-1.87l3.7-12.992a51.778,51.778,0,0,0,14.517-6.016l11.808,6.573a2.578,2.578,0,0,0,3.072-.43l8.88-8.88a2.578,2.578,0,0,0,.43-3.072l-6.574-11.808a51.77,51.77,0,0,0,6.016-14.517l12.993-3.7a2.574,2.574,0,0,0,1.87-2.477V259.084A2.574,2.574,0,0,0,254.68,256.606Zm-63.6,35.681a26.925,26.925,0,1,1,26.925-26.926A26.927,26.927,0,0,1,191.084,292.287Z" transform="translate(-56.549 -68.821)"/><path class="b" d="M256.131,153.752v96.242a26.925,26.925,0,0,1-31.16-.01V153.752a10.034,10.034,0,0,1,.935-4.237L236,127.824a5.024,5.024,0,0,1,9.112,0L255.2,149.515A10.118,10.118,0,0,1,256.131,153.752Z" transform="translate(-106.017 -31.49)"/><path class="d" d="M240.551,188.1v98.313a26.756,26.756,0,0,1-15.58-4.97V188.1Z" transform="translate(-106.017 -62.947)"/><path class="e" d="M235.994,127.827,225.9,149.514a10.051,10.051,0,0,0-.938,4.24v6.406a12.747,12.747,0,0,0,12.874-.484,5.12,5.12,0,0,1,5.483.042,12.742,12.742,0,0,0,12.8.442v-6.407a10.052,10.052,0,0,0-.938-4.239l-10.085-21.688A5.024,5.024,0,0,0,235.994,127.827Z" transform="translate(-106.015 -31.491)"/><path class="c" d="M241.457,127.827,235.938,139.7a15.893,15.893,0,0,0,20.149-.005l-5.519-11.867A5.024,5.024,0,0,0,241.457,127.827Z" transform="translate(-111.477 -31.491)"/><path class="f" d="M246.759,82.633a10.147,10.147,0,1,0-9.82-12.658H158.884V68.157a5.609,5.609,0,0,0-5.6-5.6h-8.658a5.609,5.609,0,0,0-5.6,5.6v1.818H60.966a10.147,10.147,0,1,0,0,5.021h57.8A92.952,92.952,0,0,0,56.094,160.36H54.239a5.609,5.609,0,0,0-5.6,5.6v8.658a5.609,5.609,0,0,0,5.6,5.6H62.9a5.609,5.609,0,0,0,5.6-5.6v-8.658a5.609,5.609,0,0,0-5.6-5.6H61.118a87.875,87.875,0,0,1,77.9-84.805v1.26a5.609,5.609,0,0,0,5.6,5.6h8.658a5.609,5.609,0,0,0,5.6-5.6v-1.26a87.875,87.875,0,0,1,77.9,84.806h-1.778a5.609,5.609,0,0,0-5.6,5.6v8.658a5.609,5.609,0,0,0,5.6,5.6h8.658a5.609,5.609,0,0,0,5.6-5.6v-8.658a5.609,5.609,0,0,0-5.6-5.6H241.81A92.952,92.952,0,0,0,179.14,75h57.8a10.157,10.157,0,0,0,9.82,7.636ZM63.479,165.962v8.658a.582.582,0,0,1-.582.581H54.239a.582.582,0,0,1-.582-.581v-8.658a.582.582,0,0,1,.582-.581H62.9A.582.582,0,0,1,63.479,165.962Zm180.769,0v8.658a.582.582,0,0,1-.582.581h-8.658a.582.582,0,0,1-.582-.581v-8.658a.582.582,0,0,1,.582-.581h8.658A.582.582,0,0,1,244.248,165.962Zm2.51-98.6a5.126,5.126,0,1,1-5.126,5.125A5.131,5.131,0,0,1,246.759,67.36ZM51.147,77.611a5.126,5.126,0,1,1,5.126-5.126A5.132,5.132,0,0,1,51.147,77.611Zm102.717-.8a.582.582,0,0,1-.581.581h-8.658a.582.582,0,0,1-.581-.581V68.157a.582.582,0,0,1,.581-.582h8.658a.582.582,0,0,1,.581.582Z" transform="translate(-14.419 -0.332)"/><path class="d" d="M50.328,143.288a2.51,2.51,0,0,1-2.511-2.511,3.013,3.013,0,0,0-3.01-3.01,2.511,2.511,0,0,1,0-5.021,3.013,3.013,0,0,0,3.01-3.01,2.511,2.511,0,1,1,5.021,0,3.013,3.013,0,0,0,3.01,3.01,2.511,2.511,0,0,1,0,5.021,3.013,3.013,0,0,0-3.01,3.01,2.51,2.51,0,0,1-2.511,2.511Z" transform="translate(-15.064 -32.639)"/><path class="c" d="M337.555,171.174a2.51,2.51,0,0,1-2.51-2.511,3.013,3.013,0,0,0-3.011-3.01,2.511,2.511,0,1,1,0-5.021,3.013,3.013,0,0,0,3.011-3.01,2.511,2.511,0,0,1,5.021,0,3.013,3.013,0,0,0,3.01,3.01,2.511,2.511,0,1,1,0,5.021,3.013,3.013,0,0,0-3.01,3.01A2.511,2.511,0,0,1,337.555,171.174Z" transform="translate(-158.073 -46.523)"/><path class="b" d="M93.8,422.062a2.5,2.5,0,0,1-1.775-.736l-5.52-5.52a2.51,2.51,0,0,1,0-3.55l5.52-5.52a2.509,2.509,0,0,1,3.55,0l5.52,5.52a2.51,2.51,0,0,1,0,3.55l-5.52,5.52A2.5,2.5,0,0,1,93.8,422.062Zm-1.97-8.031L93.8,416l1.97-1.97-1.97-1.97Z" transform="translate(-36.71 -171.439)"/><path class="b" d="M424.617,342.553a2.5,2.5,0,0,1-1.775-.735l-5.52-5.52a2.509,2.509,0,0,1,0-3.55l5.52-5.52a2.509,2.509,0,0,1,3.55,0l5.52,5.52a2.51,2.51,0,0,1,0,3.55l-5.52,5.52A2.5,2.5,0,0,1,424.617,342.553Zm-1.969-8.031,1.969,1.97,1.97-1.97-1.97-1.97Z" transform="translate(-201.421 -131.853)"/></g><g transform="translate(495.305 325)"><g transform="translate(1019.694 390)"><path class="g" d="M239.2,106.536V236.719a6.872,6.872,0,0,1-6.87,6.87H62.87a6.872,6.872,0,0,1-6.87-6.87V106.536a6.872,6.872,0,0,1,6.87-6.87H232.326a6.872,6.872,0,0,1,6.87,6.87Z" transform="translate(-56 -71.265)"/><path class="c" d="M239.2,121.728V106.536a6.87,6.87,0,0,0-6.87-6.87H62.87a6.87,6.87,0,0,0-6.87,6.87v15.192Z" transform="translate(-56 -71.265)"/><path class="b" d="M122.851,327.51h-7.328a1.374,1.374,0,0,1-1.374-1.374V284.521a1.374,1.374,0,0,1,1.374-1.374h7.328a1.374,1.374,0,0,1,1.374,1.374v41.615A1.374,1.374,0,0,1,122.851,327.51Z" transform="translate(-87.517 -170.714)"/><path class="c" d="M90.139,356.35H82.811a1.374,1.374,0,0,1-1.374-1.374V337.73a1.374,1.374,0,0,1,1.374-1.374h7.328a1.374,1.374,0,0,1,1.374,1.374v17.246A1.374,1.374,0,0,1,90.139,356.35Z" transform="translate(-69.787 -199.554)"/><path class="c" d="M155.564,350.56h-7.328a1.374,1.374,0,0,1-1.374-1.374V327.047a1.374,1.374,0,0,1,1.374-1.374h7.328a1.374,1.374,0,0,1,1.374,1.374v22.139A1.374,1.374,0,0,1,155.564,350.56Z" transform="translate(-105.248 -193.764)"/><path class="b" d="M188.277,324.258h-7.328a1.374,1.374,0,0,1-1.374-1.374V278.521a1.374,1.374,0,0,1,1.374-1.374h7.328a1.374,1.374,0,0,1,1.374,1.374v44.364A1.374,1.374,0,0,1,188.277,324.258Z" transform="translate(-122.979 -167.462)"/><path class="c" d="M220.989,331.048h-7.328a1.374,1.374,0,0,1-1.374-1.374V291.047a1.374,1.374,0,0,1,1.374-1.374h7.328a1.374,1.374,0,0,1,1.374,1.374v38.627A1.374,1.374,0,0,1,220.989,331.048Z" transform="translate(-140.709 -174.251)"/><path class="b" d="M253.7,311.25h-7.328A1.374,1.374,0,0,1,245,309.876V254.521a1.374,1.374,0,0,1,1.374-1.374H253.7a1.374,1.374,0,0,1,1.374,1.374v55.355A1.374,1.374,0,0,1,253.7,311.25Z" transform="translate(-158.44 -154.454)"/><path class="c" d="M286.415,334.3h-7.328a1.374,1.374,0,0,1-1.374-1.374V297.047a1.374,1.374,0,0,1,1.374-1.374h7.328a1.374,1.374,0,0,1,1.374,1.374v35.879A1.374,1.374,0,0,1,286.415,334.3Z" transform="translate(-176.171 -177.503)"/><path class="b" d="M319.127,308H311.8a1.374,1.374,0,0,1-1.374-1.374v-58.1a1.374,1.374,0,0,1,1.374-1.374h7.328a1.374,1.374,0,0,1,1.374,1.374v58.1A1.374,1.374,0,0,1,319.127,308Z" transform="translate(-193.901 -151.202)"/><path class="c" d="M351.84,314.787h-7.328a1.374,1.374,0,0,1-1.374-1.374V261.047a1.374,1.374,0,0,1,1.374-1.374h7.328a1.374,1.374,0,0,1,1.374,1.374v52.366A1.374,1.374,0,0,1,351.84,314.787Z" transform="translate(-211.632 -157.991)"/><path class="b" d="M384.553,301.779h-7.328a1.374,1.374,0,0,1-1.374-1.374V237.047a1.374,1.374,0,0,1,1.374-1.374h7.328a1.374,1.374,0,0,1,1.374,1.374v63.358A1.374,1.374,0,0,1,384.553,301.779Z" transform="translate(-229.363 -144.982)"/><path class="c" d="M417.265,275.477h-7.328a1.374,1.374,0,0,1-1.374-1.374V188.521a1.374,1.374,0,0,1,1.374-1.374h7.328a1.374,1.374,0,0,1,1.374,1.374V274.1A1.374,1.374,0,0,1,417.265,275.477Z" transform="translate(-247.093 -118.681)"/><path class="f" d="M131.335,185.364a7.608,7.608,0,1,0-13.038,5.318A7.579,7.579,0,0,0,116.12,196a2.29,2.29,0,0,0,4.58,0,3.028,3.028,0,1,1,6.056,0,2.29,2.29,0,0,0,4.58,0,7.58,7.58,0,0,0-2.177-5.318A7.579,7.579,0,0,0,131.335,185.364Zm-7.608-3.028a3.027,3.027,0,1,1-3.028,3.028A3.031,3.031,0,0,1,123.728,182.336Z" transform="translate(-88.586 -113.591)"/><path class="f" d="M222.176,191.313h41.21a2.346,2.346,0,1,0,0-4.693h-41.21a2.346,2.346,0,0,0,0,4.693Z" transform="translate(-144.798 -118.395)"/><path class="f" d="M172.29,191.313h11.256a2.346,2.346,0,1,0,0-4.693H172.29a2.346,2.346,0,1,0,0,4.693Z" transform="translate(-117.759 -118.395)"/><path class="f" d="M172.29,211.632h64.057a2.346,2.346,0,0,0,0-4.693H172.29a2.346,2.346,0,0,0,0,4.693Z" transform="translate(-117.759 -129.408)"/><circle class="f" cx="2.56" cy="2.56" r="2.56" transform="translate(27.937 91.233)"/><circle class="f" cx="2.56" cy="2.56" r="2.56" transform="translate(35.682 91.233)"/><circle class="f" cx="2.56" cy="2.56" r="2.56" transform="translate(43.427 91.233)"/><path class="c" d="M372.17,65.947a2.29,2.29,0,0,1-2.29-2.29,2.759,2.759,0,0,0-2.755-2.755,2.29,2.29,0,0,1,0-4.58,2.758,2.758,0,0,0,2.755-2.755,2.29,2.29,0,1,1,4.58,0,2.759,2.759,0,0,0,2.755,2.755,2.29,2.29,0,0,1,0,4.58,2.758,2.758,0,0,0-2.755,2.755A2.29,2.29,0,0,1,372.17,65.947Z" transform="translate(-223.392 -45.038)"/><path class="d" d="M177.2,52.324a2.29,2.29,0,0,1-2.29-2.29,2.759,2.759,0,0,0-2.755-2.755,2.29,2.29,0,0,1,0-4.58,2.758,2.758,0,0,0,2.755-2.755,2.29,2.29,0,1,1,4.58,0,2.758,2.758,0,0,0,2.755,2.755,2.29,2.29,0,0,1,0,4.58,2.758,2.758,0,0,0-2.755,2.755A2.29,2.29,0,0,1,177.2,52.324Z" transform="translate(-117.717 -37.654)"/><path class="b" d="M280.043,446.874a2.289,2.289,0,0,1-1.62-.671l-5.035-5.036a2.289,2.289,0,0,1,0-3.238l5.035-5.036a2.29,2.29,0,0,1,3.239,0l5.036,5.036a2.289,2.289,0,0,1,0,3.238l-5.036,5.036A2.289,2.289,0,0,1,280.043,446.874Zm-1.8-7.326,1.8,1.8,1.8-1.8-1.8-1.8Z" transform="translate(-173.463 -251.515)"/><path class="c" d="M231.618,457.008a2.282,2.282,0,0,1-1.619-.671l-5.036-5.035a2.29,2.29,0,0,1,0-3.238L230,443.028a2.29,2.29,0,0,1,3.239,0l5.036,5.036a2.29,2.29,0,0,1,0,3.238l-5.036,5.035A2.285,2.285,0,0,1,231.618,457.008Zm-1.8-7.325,1.8,1.8,1.8-1.8-1.8-1.8Z" transform="translate(-147.216 -257.008)"/></g></g><g transform="translate(1141.107 -410)"><g transform="translate(388.587 705.001)"><path class="f" d="M321.928,243.741l-13.4-3.814a53.376,53.376,0,0,0-6.2-14.967l6.777-12.173a2.658,2.658,0,0,0-.443-3.167l-9.155-9.155a2.658,2.658,0,0,0-3.167-.443L284.169,206.8a53.379,53.379,0,0,0-14.967-6.2l-3.814-13.4a2.654,2.654,0,0,0-2.554-1.928H249.889a2.654,2.654,0,0,0-2.554,1.928l-3.814,13.4a53.378,53.378,0,0,0-14.967,6.2l-12.173-6.777a2.658,2.658,0,0,0-3.167.443l-9.155,9.155a2.658,2.658,0,0,0-.443,3.167l6.777,12.173a53.373,53.373,0,0,0-6.2,14.967l-13.4,3.814a2.654,2.654,0,0,0-1.928,2.554V259.24a2.654,2.654,0,0,0,1.928,2.554l13.4,3.814a53.377,53.377,0,0,0,6.2,14.967l-6.777,12.173a2.658,2.658,0,0,0,.443,3.167l9.155,9.155a2.658,2.658,0,0,0,3.167.443l12.173-6.777a53.371,53.371,0,0,0,14.967,6.2l3.814,13.4a2.654,2.654,0,0,0,2.554,1.928h12.945a2.654,2.654,0,0,0,2.554-1.928l3.814-13.4a53.377,53.377,0,0,0,14.967-6.2l12.173,6.777a2.658,2.658,0,0,0,3.167-.443l9.155-9.155a2.658,2.658,0,0,0,.443-3.167l-6.777-12.173a53.377,53.377,0,0,0,6.2-14.967l13.4-3.814a2.654,2.654,0,0,0,1.928-2.554V246.3A2.654,2.654,0,0,0,321.928,243.741Zm-65.567,42.251a33.225,33.225,0,1,1,33.225-33.225,33.227,33.227,0,0,1-33.225,33.225Z" transform="translate(-113.551 -120.262)"/><path class="c" d="M91.257,231.3l-7.233-2.06a28.825,28.825,0,0,0-3.349-8.082l3.66-6.573a1.436,1.436,0,0,0-.239-1.71l-4.944-4.944a1.435,1.435,0,0,0-1.71-.239l-6.573,3.66A28.824,28.824,0,0,0,62.786,208l-2.06-7.233a1.433,1.433,0,0,0-1.38-1.041h-6.99a1.434,1.434,0,0,0-1.38,1.041L48.917,208a28.824,28.824,0,0,0-8.082,3.349l-6.573-3.66a1.436,1.436,0,0,0-1.71.239l-4.944,4.944a1.435,1.435,0,0,0-.239,1.71l3.66,6.573a28.826,28.826,0,0,0-3.349,8.082l-7.233,2.06a1.433,1.433,0,0,0-1.041,1.379v6.99a1.433,1.433,0,0,0,1.041,1.379l7.233,2.06a28.826,28.826,0,0,0,3.349,8.082l-3.66,6.573a1.436,1.436,0,0,0,.239,1.71l4.944,4.944a1.435,1.435,0,0,0,1.71.239l6.573-3.66a28.826,28.826,0,0,0,8.082,3.349l2.06,7.233a1.433,1.433,0,0,0,1.38,1.041h6.99a1.434,1.434,0,0,0,1.38-1.041l2.06-7.233a28.826,28.826,0,0,0,8.082-3.349l6.573,3.66a1.436,1.436,0,0,0,1.71-.239l4.944-4.944a1.435,1.435,0,0,0,.239-1.71l-3.66-6.573a28.819,28.819,0,0,0,3.349-8.082l7.233-2.06a1.433,1.433,0,0,0,1.041-1.379v-6.99a1.433,1.433,0,0,0-1.041-1.379Zm-35.4,16.338A11.464,11.464,0,1,1,67.315,236.17,11.464,11.464,0,0,1,55.852,247.634Z" transform="translate(-19.406 -128.291)"/><path class="b" d="M193.779,73,185.99,70.78a31.04,31.04,0,0,0-3.607-8.7L186.324,55a1.546,1.546,0,0,0-.258-1.842l-5.324-5.324a1.546,1.546,0,0,0-1.842-.258l-7.079,3.941a31.038,31.038,0,0,0-8.7-3.607L160.9,40.12A1.544,1.544,0,0,0,159.415,39h-7.528A1.544,1.544,0,0,0,150.4,40.12l-2.218,7.789a31.039,31.039,0,0,0-8.7,3.607L132.4,47.575a1.546,1.546,0,0,0-1.842.258l-5.323,5.324A1.546,1.546,0,0,0,124.98,55l3.941,7.079a31.038,31.038,0,0,0-3.607,8.7L117.525,73a1.544,1.544,0,0,0-1.121,1.485v7.528a1.544,1.544,0,0,0,1.121,1.485l7.789,2.218a31.038,31.038,0,0,0,3.607,8.7L124.98,101.5a1.546,1.546,0,0,0,.258,1.842l5.324,5.324a1.546,1.546,0,0,0,1.842.258l7.079-3.941a31.026,31.026,0,0,0,8.7,3.607l2.218,7.789a1.544,1.544,0,0,0,1.485,1.121h7.528a1.544,1.544,0,0,0,1.485-1.121l2.218-7.789a31.039,31.039,0,0,0,8.7-3.607l7.079,3.941a1.546,1.546,0,0,0,1.842-.258l5.324-5.324a1.546,1.546,0,0,0,.258-1.842l-3.941-7.079a31.038,31.038,0,0,0,3.607-8.7l7.789-2.218a1.544,1.544,0,0,0,1.121-1.485V74.484A1.545,1.545,0,0,0,193.779,73ZM155.652,93.514a15.267,15.267,0,1,1,15.267-15.267A15.268,15.268,0,0,1,155.652,93.514Z" transform="translate(-73.294 -38.999)"/><path class="b" d="M144.082,394.282a2.217,2.217,0,0,1-1.572-.651l-4.889-4.889a2.222,2.222,0,0,1,0-3.143l4.889-4.889a2.223,2.223,0,0,1,3.143,0l4.889,4.889a2.223,2.223,0,0,1,0,3.143l-4.889,4.889A2.218,2.218,0,0,1,144.082,394.282Zm-1.747-7.111,1.746,1.746,1.746-1.746-1.746-1.746Z" transform="translate(-84.72 -228.478)"/><path class="b" d="M343.62,130.535a2.223,2.223,0,0,1-2.222-2.222,2.67,2.67,0,0,0-2.667-2.667,2.222,2.222,0,0,1,0-4.444,2.67,2.67,0,0,0,2.667-2.667,2.222,2.222,0,1,1,4.444,0,2.669,2.669,0,0,0,2.667,2.667,2.222,2.222,0,1,1,0,4.444,2.669,2.669,0,0,0-2.667,2.667A2.222,2.222,0,0,1,343.62,130.535Z" transform="translate(-195.575 -81.951)"/><path class="c" d="M174.523,443.868a2.223,2.223,0,0,1-2.222-2.222,2.67,2.67,0,0,0-2.667-2.667,2.222,2.222,0,1,1,0-4.444,2.669,2.669,0,0,0,2.667-2.667,2.222,2.222,0,0,1,4.444,0,2.669,2.669,0,0,0,2.667,2.667,2.222,2.222,0,1,1,0,4.444,2.67,2.67,0,0,0-2.667,2.667A2.222,2.222,0,0,1,174.523,443.868Z" transform="translate(-101.632 -256.026)"/><path class="c" d="M66.727,155.177a2.222,2.222,0,0,1-2.222-2.222,2.67,2.67,0,0,0-2.667-2.667,2.222,2.222,0,1,1,0-4.444,2.67,2.67,0,0,0,2.667-2.667,2.222,2.222,0,0,1,4.444,0,2.67,2.67,0,0,0,2.667,2.667,2.222,2.222,0,1,1,0,4.444,2.67,2.67,0,0,0-2.667,2.667A2.222,2.222,0,0,1,66.727,155.177Z" transform="translate(-41.745 -95.641)"/></g></g></g></svg>