<svg xmlns="http://www.w3.org/2000/svg" width="45" height="45" viewBox="0 0 45 45"><defs><style>.a,.d{fill:none;}.a,.b{stroke:#000;stroke-linecap:round;stroke-linejoin:round;}.b{stroke-width:0.1px;}.c{stroke:none;}</style></defs><g class="a"><circle class="c" cx="22.5" cy="22.5" r="22.5"/><circle class="d" cx="22.5" cy="22.5" r="22"/></g><g transform="translate(12 -77.848)"><g transform="translate(-1 92.848)"><path class="b" d="M332.195,112.321h5.526a.373.373,0,0,0,.395-.395v-1.579a.373.373,0,0,0-.395-.395h-5.526a.373.373,0,0,0-.395.395v1.579A.373.373,0,0,0,332.195,112.321Zm.395-1.579h4.736v.789h-4.736Z" transform="translate(-316.407 -109.162)"/><path class="b" d="M9.065,99.56a3.247,3.247,0,0,0,1.381-3.552c-.434-2.566-3.039-3.2-4.381-3.158H-.605A.373.373,0,0,0-1,93.244v13.419a.373.373,0,0,0,.395.395H6.578c1.658,0,4.342-.671,4.657-3.394A3.794,3.794,0,0,0,9.065,99.56Zm1.381,3.986c-.355,2.921-3.986,2.723-4.184,2.723H-.211V93.639H6.065c.039,0,3.158,0,3.592,2.487A2.553,2.553,0,0,1,7.96,99.2a.392.392,0,0,0-.276.395A.384.384,0,0,0,8,99.994,3.1,3.1,0,0,1,10.446,103.546Z" transform="translate(1 -92.848)"/><path class="b" d="M283.117,184.139c0-3.473-2.289-5.92-5.526-5.92a5.526,5.526,0,1,0,0,11.051,5.346,5.346,0,0,0,5.131-3.473.307.307,0,0,0-.079-.316.359.359,0,0,0-.316-.158H279.96a.379.379,0,0,0-.355.276,1.6,1.6,0,0,1-1.618.908,1.905,1.905,0,0,1-1.973-1.973h6.71A.373.373,0,0,0,283.117,184.139Zm-7.539-.395a.373.373,0,0,0-.395.395c0,1.934,1.066,3.158,2.763,3.158a2.336,2.336,0,0,0,2.25-1.184h1.5a4.607,4.607,0,0,1-4.1,2.368c-2.763,0-4.736-2.171-4.736-5.131a4.775,4.775,0,0,1,4.736-4.342c3.079,0,4.578,2.368,4.7,4.736Z" transform="translate(-259.436 -174.27)"/><path class="b" d="M59.129,139.5h3.947a1.973,1.973,0,1,0,0-3.947H59.129a.373.373,0,0,0-.395.395V139.1A.373.373,0,0,0,59.129,139.5Zm.395-3.158h3.552a1.184,1.184,0,1,1,0,2.368H59.523Z" transform="translate(-55.971 -133.576)"/><path class="b" d="M62.681,255.019H59.129a.373.373,0,0,0-.395.395v3.947a.373.373,0,0,0,.395.395h3.552a2.368,2.368,0,1,0,0-4.736Zm0,3.947H59.523v-3.158h3.158a1.579,1.579,0,0,1,0,3.158Z" transform="translate(-55.971 -247.518)"/><path class="b" d="M342.9,212.352a2.448,2.448,0,0,0-2.566,2.368v.395a.373.373,0,0,0,.395.395h4.342a.373.373,0,0,0,.395-.395v-.395A2.423,2.423,0,0,0,342.9,212.352Zm-1.776,2.368a1.788,1.788,0,0,1,3.552,0Z" transform="translate(-324.545 -206.825)"/></g></g></svg>