<svg xmlns="http://www.w3.org/2000/svg" viewBox="0 0 90 90"><defs><style>.cls-1{fill:#484ea2;}.cls-2{fill:none;}.cls-2,.cls-3{stroke:#002e82;stroke-linecap:round;stroke-linejoin:round;stroke-width:1.09px;}.cls-3{fill:#fff;}</style></defs><title>icono.1</title><g id="Capa_2" data-name="Capa 2"><g id="OBJECTS"><circle class="cls-1" cx="45" cy="45" r="45"/><line class="cls-2" x1="33.53" y1="34.52" x2="56.47" y2="34.52"/><path class="cls-2" d="M56.47,23a11.47,11.47,0,1,1-22.95,0"/><rect class="cls-3" x="38.06" y="62.84" width="13.91" height="5.96" transform="translate(90.04 131.64) rotate(180)"/><path class="cls-3" d="M46.54,35.13H45V48.06a1.85,1.85,0,1,1-1.89,1.85A1.85,1.85,0,0,1,45,48.06h0V35.13H43.46L34.15,50.87l3.87,12H52l3.87-12Z"/><circle class="cls-3" cx="45" cy="34.52" r="1.85"/><circle class="cls-3" cx="56.47" cy="23.05" r="1.85"/><circle class="cls-3" cx="33.53" cy="23.05" r="1.85"/><circle class="cls-3" cx="58.32" cy="34.52" r="1.85"/><circle class="cls-3" cx="45" cy="49.95" r="1.85"/><circle class="cls-3" cx="31.68" cy="34.52" r="1.85"/></g></g></svg>