<svg xmlns="http://www.w3.org/2000/svg" viewBox="0 0 90 90"><defs><style>.cls-1{fill:#484ea2;}.cls-2{fill:#fff;stroke:#002e82;stroke-width:0.83px;}.cls-2,.cls-4{stroke-linecap:round;stroke-linejoin:round;}.cls-3{fill:#002e82;}.cls-4{fill:none;stroke:#fff;stroke-width:0.33px;}</style></defs><title>icono.2</title><g id="Capa_2" data-name="Capa 2"><g id="OBJECTS"><circle class="cls-1" cx="45" cy="45" r="45"/><path class="cls-2" d="M22,26.44H68a3,3,0,0,1,3,3V59.79a0,0,0,0,1,0,0H19a0,0,0,0,1,0,0V29.42A3,3,0,0,1,22,26.44Z"/><path class="cls-2" d="M73.86,63.56H16.14a3.77,3.77,0,0,1-3.77-3.77H77.63A3.77,3.77,0,0,1,73.86,63.56Z"/><rect class="cls-3" x="21.11" y="28.81" width="47.59" height="29.28" rx="1.8" ry="1.8"/><line class="cls-4" x1="35.41" y1="42.6" x2="40.83" y2="37.18"/><line class="cls-4" x1="49.46" y1="48.19" x2="54.89" y2="42.77"/><line class="cls-4" x1="36.39" y1="50.89" x2="52.81" y2="34.47"/></g></g></svg>