<svg xmlns="http://www.w3.org/2000/svg" viewBox="0 0 90 90"><defs><style>.cls-1{fill:#484ea2;}.cls-2{fill:#fff;}.cls-2,.cls-3,.cls-4,.cls-5{stroke:#002e82;stroke-linecap:round;stroke-linejoin:round;}.cls-2,.cls-3{stroke-width:1.4px;}.cls-3,.cls-5{fill:none;}.cls-4{fill:#dcfffb;}.cls-4,.cls-5{stroke-width:0.79px;}</style></defs><title>icono.3</title><g id="Capa_2" data-name="Capa 2"><g id="OBJECTS"><circle class="cls-1" cx="45" cy="45" r="45"/><path class="cls-2" d="M64.53,41.71A11.09,11.09,0,1,0,75.62,52.79,11.09,11.09,0,0,0,64.53,41.71Zm0,18.8a7.71,7.71,0,1,1,7.71-7.71A7.71,7.71,0,0,1,64.53,60.5Z"/><rect class="cls-2" x="40.09" y="36.9" width="24.44" height="31.78"/><path class="cls-3" d="M51.81,21.32c0,2.5-2.69,2.5-2.69,5s2.69,2.5,2.69,5-2.69,2.5-2.69,5"/><path class="cls-3" d="M56.57,21.32c0,2.5-2.69,2.5-2.69,5s2.69,2.5,2.69,5-2.69,2.5-2.69,5"/><circle class="cls-4" cx="22.03" cy="61.89" r="6.57"/><circle class="cls-4" cx="39.46" cy="62.02" r="6.57"/><path class="cls-5" d="M28.49,60.65a2.27,2.27,0,0,1,4.54,0"/><path class="cls-5" d="M16.07,59.13l28.42,5.53A3.18,3.18,0,0,1,47,68.4h0"/><path class="cls-5" d="M45.37,59.14,17,64.67a3.18,3.18,0,0,0-2.52,3.73h0"/></g></g></svg>