<svg xmlns="http://www.w3.org/2000/svg" xmlns:xlink="http://www.w3.org/1999/xlink" viewBox="0 0 336.63 162.88"><defs><style>.cls-1{isolation:isolate;}.cls-2,.cls-33,.cls-34{fill:#9abced;}.cls-2{opacity:0.6;}.cls-16,.cls-2,.cls-30,.cls-31,.cls-34,.cls-35,.cls-37{mix-blend-mode:multiply;}.cls-20,.cls-3{fill:#fff;}.cls-3{stroke:#0f22d3;stroke-miterlimit:10;stroke-width:0.85px;}.cls-4{fill:#e4ebf7;}.cls-5{fill:#98b2d8;}.cls-6{fill:#b1c3e8;}.cls-7{fill:#b7cae5;}.cls-8{fill:#97b3d1;}.cls-9{fill:#ced9ea;}.cls-10{fill:#b6c5dd;}.cls-11{fill:#5d7ca0;}.cls-12{fill:#799cbf;}.cls-13{fill:#f2f4f9;}.cls-14{fill:#c1cfe5;}.cls-15{fill:url(#linear-gradient);}.cls-16,.cls-19,.cls-40{fill:#1f395e;}.cls-16{opacity:0.22;}.cls-17{fill:url(#linear-gradient-2);}.cls-18{fill:url(#linear-gradient-3);}.cls-21{fill:url(#linear-gradient-4);}.cls-22{fill:#3150bc;}.cls-23{fill:#d08b5b;}.cls-24{fill:#bc7a4d;}.cls-25{fill:#c1c8d3;}.cls-26{fill:url(#linear-gradient-5);}.cls-27{fill:url(#linear-gradient-6);}.cls-28{fill:#3e5c9a;}.cls-29{fill:#4f7eb7;}.cls-31,.cls-36{fill:#7ca6d8;}.cls-31{opacity:0.71;}.cls-32{fill:#ea9ba1;}.cls-34,.cls-35{opacity:0.5;}.cls-37{fill:#e83f54;}.cls-38{fill:url(#Degradado_sin_nombre_2);}.cls-39{fill:#29a9e1;}.cls-40{font-size:6.32px;font-family:Gotham-Bold, Gotham;font-weight:700;}.cls-41{letter-spacing:-0.04em;}</style><linearGradient id="linear-gradient" x1="166.86" y1="154.04" x2="166.86" y2="103.02" gradientUnits="userSpaceOnUse"><stop offset="0" stop-color="#1f3a65"/><stop offset="1" stop-color="#294a7a"/></linearGradient><linearGradient id="linear-gradient-2" x1="136.09" y1="157.99" x2="136.09" y2="144.28" xlink:href="#linear-gradient"/><linearGradient id="linear-gradient-3" x1="193.62" y1="157.99" x2="193.62" y2="144.28" xlink:href="#linear-gradient"/><linearGradient id="linear-gradient-4" x1="177.01" y1="152.84" x2="159.2" y2="124.58" gradientUnits="userSpaceOnUse"><stop offset="0" stop-color="#3855e1"/><stop offset="1" stop-color="#5c7ef7"/></linearGradient><linearGradient id="linear-gradient-5" x1="234.44" y1="150.56" x2="245.46" y2="150.56" xlink:href="#linear-gradient"/><linearGradient id="linear-gradient-6" x1="250.18" y1="112.69" x2="236.19" y2="140.46" gradientUnits="userSpaceOnUse"><stop offset="0" stop-color="#e2e8f7"/><stop offset="1" stop-color="#fff"/></linearGradient><radialGradient id="Degradado_sin_nombre_2" cx="304.91" cy="47.82" r="17.28" gradientUnits="userSpaceOnUse"><stop offset="0" stop-color="#f5ec53"/><stop offset="0.24" stop-color="#e48244"/><stop offset="0.4" stop-color="#d15767"/><stop offset="0.49" stop-color="#c84278"/><stop offset="1" stop-color="#192cfa"/></radialGradient></defs><title>illustracion.1</title><g class="cls-1"><g id="Capa_2" data-name="Capa 2"><g id="OBJECTS"><rect class="cls-2" x="53.23" y="12.96" width="32.96" height="47.38" rx="2.01" ry="2.01"/><rect class="cls-2" x="300.7" y="31.65" width="32.96" height="40.59" rx="2.01" ry="2.01"/><circle class="cls-3" cx="214.66" cy="188.77"/><path class="cls-4" d="M152.09,91c18.64-3.05,36.56-22.24,33.09-51.79a160.42,160.42,0,0,1-.76-32.64c-11.83,7.4-17.26,20.81-12,39.1,2.74,9.43-1.07,13.81-8.79,15.7h0A21.59,21.59,0,0,1,159.91,70,15.5,15.5,0,0,1,149,76a13.32,13.32,0,0,1-1.63.1,11.86,11.86,0,0,1-7.8-2.93c-3.07-2.58-5.31-6.58-6.94-10.91-6.61-.26-13.58-.55-20.56-.5C120.45,86.61,138.3,93.3,152.09,91Z"/><path class="cls-4" d="M103.38,106.62a55.52,55.52,0,0,0,46.3,10.64c42.06-8.61,55-28.46,53.47-81.67C202.7,20.48,205.34,8.56,211,0c-9.56,0-18,1.87-24.71,5.5A155.57,155.57,0,0,0,186.87,39c3.59,30.59-15.1,50.48-34.5,53.66a33.14,33.14,0,0,1-5.39.44c-13.56,0-29.08-8.22-36.64-31.41C98.61,61.92,86.92,63.14,77,67,82.23,83.39,91.4,97.37,103.38,106.62Z"/><path class="cls-4" d="M140.71,71.83a10.25,10.25,0,0,0,8.12,2.44,13.88,13.88,0,0,0,9.73-5.33,19.28,19.28,0,0,0,3.25-7.14c-7,1.28-16.59.95-27.26.5C136.06,66.14,138.06,69.6,140.71,71.83Z"/><path class="cls-4" d="M277.15,31.15c-9.67,16.35-11.74,34.43-6.34,54.78,5.51,20.8,17.19,30.52,26.56,35.05a165.85,165.85,0,0,0,1.77-26.18C299,74.08,292.35,49.89,277.15,31.15Z"/><path class="cls-4" d="M63.35,122.81a53.37,53.37,0,0,0-15.3-3.44c3.62,22.33,21.66,38,21.66,38H96C88.37,139.92,77.41,128.31,63.35,122.81Z"/><path class="cls-4" d="M269.16,86.37c-5.57-21.05-3.35-39.74,6.83-56.61a80.71,80.71,0,0,0-21.31-17.89A75.67,75.67,0,0,0,245,61.53c5.88,40.88,25.17,59.29,40.31,67.53a66.6,66.6,0,0,0,9.51,4.26c.86-3.26,1.63-6.8,2.26-10.59C287.28,118.12,274.93,108.11,269.16,86.37Z"/><path class="cls-4" d="M243.33,61.78A77.49,77.49,0,0,1,253.12,11a83.32,83.32,0,0,0-13.86-6A92.73,92.73,0,0,0,213,0c-5.88,8.31-8.63,20.21-8.18,35.5.82,27.62-2.32,45.47-10.2,57.89-8.25,13-22,20.87-44.63,25.49a62,62,0,0,1-12.46,1.3A56.85,56.85,0,0,1,102.34,108C90.12,98.52,80.77,84.31,75.4,67.67a40.41,40.41,0,0,0-17,13c-9.74,13.17-12,25.83-10.6,36.94A55.2,55.2,0,0,1,64,121.23C78.65,127,90,139.11,97.83,157.34H281.29c5-2.9,9.76-10.75,13.08-22.37a70.21,70.21,0,0,1-9.78-4.38C269.07,122.17,249.31,103.39,243.33,61.78Z"/><path class="cls-5" d="M61.12,104.85l-5.24,5.4L53.7,107,53,106c-2.33.59-5.77-4-7.16-6.41s4.14-6.21,4.14-6.21c-.9-2.7-4.51-4.39-4.61-5.14s.8-1.53,4.08,0,6.15,7,6.15,7c.59-1.59-2-5.88-1.53-6.36s3,.11,5,4.24.8,9,.8,9l0,0Z"/><path class="cls-6" d="M49.75,92.87s3.89,4.45,3.47,6.2-2.38-.28-2.38-.28,1.8,2.08,1.22,2.77-2.76-1.06-2.76-1.06,2.6,3.23,0,2.76S43.45,97.88,46,97.39c0,0-.3-3.57,2-2.35C47.93,95,46.91,92.07,49.75,92.87Z"/><path class="cls-7" d="M97.06,157.37s4.38-12.8,2.08-25.43a.54.54,0,0,1,0-.08.63.63,0,0,0,0-.1l-.2-1a53.28,53.28,0,0,1-6.05,4.43c-4.21,2.65-9.84,5.29-14.15,4.05-7.92-2.26-19.5-17.66-24.88-29.82a14.1,14.1,0,0,1,8.06-5.27s10.74,14.31,20.21,17.7a69.87,69.87,0,0,0,9-15c2.53-5.68,6.32-9.28,11.1-11.21a25.88,25.88,0,0,1,9-1.78l8.3-3.87a31.22,31.22,0,0,1,3.44.28c3.89.51,10.36,1.93,15.59,5.92,8.06,6.14,19.65,61.16,19.65,61.16Z"/><path class="cls-8" d="M99.12,131.86c-.07-.36-.14-.73-.22-1.09a53.28,53.28,0,0,1-6.05,4.43l2.45-21C97.79,123.83,99,131,99.12,131.86Z"/><path class="cls-9" d="M123,90.29c-1.28,8.14-9.43,15.66-15.31,15.56-4.73-.08-5.43-6.87-5.48-10.18a25.88,25.88,0,0,1,9-1.78l8.3-3.87A31.22,31.22,0,0,1,123,90.29Z"/><path class="cls-8" d="M108.93,149.05s18.69-19.45,19.51-39.91L134,126.38l-2.12,17.95Z"/><path class="cls-5" d="M108.39,157.36H87.46a4.28,4.28,0,0,1,3.29-3.82c3.23-1,5.3-5,15-4.45Z"/><path class="cls-10" d="M129.81,138.13a112.13,112.13,0,0,1-25.39,9.7,9.64,9.64,0,0,0,1.63,9.54h30Z"/><path class="cls-11" d="M93.08,78.67s-4.46-6.16-3.91-10.31a3.45,3.45,0,0,1,4.39-3.17s-.18-10.08,9.15-7.5c0,0-.21-3.08,1.83-3s5.23,4.77,5.23,4.77S110.57,56,112,56.8s1.81,4.4,4.69,6.13,4.67,4,2.4,11-.57,7.49-1.37,11.08c-.77,3.41-1.38,5.49-3.5,5.68s-10.22-8.36-10.22-8.36Z"/><path class="cls-5" d="M119.58,90s-5.2,12.61-10.66,11.66c-2.71-.47-3.32-2.13-3.34-4,0-2.5.95-5.44-.53-6.66l6.55-9.3L113,79.61A33.93,33.93,0,0,0,119.58,90Z"/><path class="cls-12" d="M105.58,97.63c0-2.5.95-5.44-.53-6.66l6.55-9.3a6.55,6.55,0,0,1,1.12,3.64C113.58,94.9,108.5,97.13,105.58,97.63Z"/><path class="cls-5" d="M92.45,73.77s1.77,16.24,8.4,19.9c5.76,3.18,12.75-6.43,12.61-11.19a5.76,5.76,0,0,0,2.09-5c-.42-3.1-3.7-2.07-4.09,2.93,0,0-2.67-.19-3.16-6.44-1.68,1.39-3.48,1-5.38-.73,0,0-.94,3.48-5.79-.59A3.81,3.81,0,0,1,92.45,73.77Z"/><path class="cls-11" d="M248.77,136.7s8.55,14.27,11.52,21.2H230.12a123.81,123.81,0,0,0-4.74-16.36Z"/><path class="cls-12" d="M237,139.88a30.6,30.6,0,0,1-7.9,13.69l1,4.33-36.5-.45,4.06-25Z"/><path class="cls-12" d="M294.27,62s1.21-7.57,3.61-10.25,9-6.66,9.75-5.24-5.79,5.84-5.79,5.84,3-.71,5.51,3.67-5.65,7.77-5.65,7.77l-1.63,3.67-6.5-4.1Z"/><path class="cls-5" d="M302.68,52.47s-3.66,3.72-3.13,4.79,2.55-.61,2.55-.61-1.65,2.51-.37,3.15S305,58.29,305,58.29s-1.65,2.28-.7,2.7,6-3.15,5.11-4-1.4-.15-1.4-.15,1.06-1.79,0-2.36a1.22,1.22,0,0,0-1.73.49s.87-1.37.16-1.9-2.18.15-2.18.15S304.73,51,302.68,52.47Z"/><path class="cls-5" d="M299.28,52.38c-1.11-.32-3.37,2-3.37,2-.89,1.14-1.07,3.42-1.11,4.48a8.82,8.82,0,0,1-1.22,4.5l3.3,2.08c2.55-3.29,1.72-7.51,1.31-9C299.42,54.58,299.94,52.57,299.28,52.38Z"/><path class="cls-7" d="M301.41,68.23s-11,29.35-28.54,32A90.14,90.14,0,0,1,255,101.25a33.27,33.27,0,0,1-7.54-1.05h0s-4.81,9-1.7,21.82S250,137.55,250,137.55s-23.61,17.37-42.82,1.55l-17.33-26.95-5.43-8.45s5-16.37,19-27h0a43,43,0,0,1,20-8.41,50.83,50.83,0,0,1,13.67-.13s3.82,1.08,10,3.35c3.34,1.22,7.38,2.79,11.88,4.72,12.86,5.51,16.4,7.16,16.4,7.16s13.7-13.52,17.24-21.71C292.65,61.66,299.71,62.37,301.41,68.23Z"/><path class="cls-8" d="M213,81.63c-.06,6.58-1.47,13-2.09,17.9l10.89-2.2,16.95,16.76s2.15,4.91-2.22,5.76c-3.43.66-19.43,2.89-19.43,2.89-3.69,5-5.36,12.7-7.2,20.15l-16.25-28.24Z"/><path class="cls-9" d="M237.11,83.21c-7.59-1.92-11.58-8.75-13.67-14.94a50.83,50.83,0,0,1,13.67-.13s3.82,1.08,10,3.35C247.86,76.91,247.6,85.87,237.11,83.21Z"/><path class="cls-8" d="M257,89.21a82.81,82.81,0,0,0-2.06,12,33.27,33.27,0,0,1-7.54-1.05h0S251.74,92.82,257,89.21Z"/><rect class="cls-13" x="215.81" y="87.26" width="21.18" height="31.16" rx="1.02" ry="1.02" transform="translate(-12.42 33.58) rotate(-8.26)"/><path class="cls-5" d="M224.32,98.54l2.9-1.13s2.76-7.63,6.18-2.83c0,0,2.37-1.41,2.3-2.19s-.11-1.91-.11-1.91,4.8,1,3.72,7.73-5.17,5.84-9.2,5.91l-5,2Z"/><path class="cls-14" d="M226.19,107.87s-22.57,14.94-32.32,7.73a39.19,39.19,0,0,1-4-3.45l-5.43-8.45s5-16.37,19-27h0c4.66-2.09,9.53-1.33,9.78,3,.6,10.28-8.2,16.61-9.29,21.27l20.23-4.1S227.46,100.34,226.19,107.87Z"/><path class="cls-11" d="M252.72,52.5s3.23-6.89,1.91-10.86a3.45,3.45,0,0,0-4.91-2.29s-1.72-9.94-10.4-5.65c0,0-.38-3.06-2.36-2.6s-4.24,5.67-4.24,5.67-1.43-3.26-2.63-2.2-.95,4.66-3.45,6.9-3.84,4.76-.3,11.21,2,7.25,3.43,10.63c1.4,3.21,2.39,5.13,4.5,4.92s8.47-10.13,8.47-10.13Z"/><path class="cls-5" d="M228.84,68.61s5,12.3,12.83,10.28c2.67-.69,2.68-3.55,2.35-5.44-.45-2.46-2-5.16-.74-6.64l-8.18-7.9-1.8-1.74A33.93,33.93,0,0,1,228.84,68.61Z"/><path class="cls-12" d="M244,73.46c-.45-2.46-2-5.16-.74-6.64l-8.18-7.9a6.55,6.55,0,0,0-.42,3.78C235.65,72.29,241.05,73.53,244,73.46Z"/><path class="cls-5" d="M252.43,47.56s1.32,16.28-4.51,21.12c-5.06,4.2-13.74-3.92-14.49-8.61a5.76,5.76,0,0,1-3-4.54c-.17-3.13,3.24-2.73,4.57,2.1,0,0,2.58-.69,1.89-6.92,1.91,1,3.6.29,5.15-1.73,0,0,1.58,3.24,5.58-1.67A3.81,3.81,0,0,0,252.43,47.56Z"/><path class="cls-15" d="M211,148.36h0a11.33,11.33,0,0,1-1,2.74c-4.1,7.49-21.83,6.26-21.83,6.26H147.66c-16.75,0-23.47-.42-25.07-5.65a6.83,6.83,0,0,1-.22-.89c-1.14-6.08,4.52-25.86,15-39.43,5.35-6.94,10.88-10.59,15.81-12.5a31.78,31.78,0,0,1,11.78-2.06,56.53,56.53,0,0,1,12.8,1.2c9.45,2.21,14.39,7.55,21.8,17C208.59,126.65,213,140.24,211,148.36Z"/><path class="cls-16" d="M139.81,143.56c4.39-6.91,5.78-16.5,7-26.22l3.82,19.78h33.07l6.08-19.78c-.14,9.25,1.13,18.32,5.51,27C195.28,144.33,173.66,168.8,139.81,143.56Z"/><path class="cls-17" d="M149.85,157.37h-2.2c-16.75,0-23.47-.42-25.07-5.65-.87-4.11.24-8.44,5.25-9.73,7.85-2,21.52,5.94,21.52,5.94Z"/><path class="cls-18" d="M211,148.36s0,0,0,0a11.33,11.33,0,0,1-1,2.74c-4.1,7.49-21.83,6.26-21.83,6.26h-12l1.53-10.17s21.3-9.86,28.93-6.78C210.32,141.91,211.46,145,211,148.36Z"/><path class="cls-19" d="M177.73,98c-.36,4.76-2.32,13.42-11.9,13.42-10.1,0-12.24-8.54-12.68-12.57a31.78,31.78,0,0,1,11.78-2.06A56.53,56.53,0,0,1,177.73,98Z"/><path class="cls-20" d="M186.45,157.36H147.66a1.7,1.7,0,0,1-1.7-1.7h0a1.7,1.7,0,0,1,1.7-1.7h38.79a1.7,1.7,0,0,1,1.7,1.7h0A1.7,1.7,0,0,1,186.45,157.36Z"/><path class="cls-21" d="M191.15,128.2l-.14.88h0L187,154H147.45l-4-25.79a2.09,2.09,0,0,1,2.06-2.41h43.56A2.09,2.09,0,0,1,191.15,128.2Z"/><path class="cls-22" d="M191,129.09,187,154H147.66L161,152.59A35.85,35.85,0,0,0,191,129.09Z"/><path class="cls-23" d="M165.66,107.87h-.26a9.27,9.27,0,0,1-3.82-.77,6.88,6.88,0,0,1-3.94-6.45c0-.28,0-.55,0-.82,0-2.26-.14-4.15-.14-4.15v-1L171.76,94a32.85,32.85,0,0,0,.57,5.33l0,.07A7.06,7.06,0,0,1,165.66,107.87Z"/><path class="cls-24" d="M172.32,99.36c-5.94,7-12,2.9-14.68.47,0-2.26-.14-4.15-.14-4.15v-1L171.76,94A32.85,32.85,0,0,0,172.32,99.36Z"/><path class="cls-23" d="M153.15,87.73s4.42,12.45,11.78,12.45,10.43-13.41,10.43-13.41V75.12H152.59Z"/><path class="cls-23" d="M150.78,80.71A2.36,2.36,0,0,0,149,83.6c.37,2.49,2.63,5.51,4.47,3.92Z"/><path class="cls-23" d="M177.08,79.67a2.36,2.36,0,0,1,2.17,2.62c0,2.52-1.86,5.82-3.89,4.49Z"/><path d="M177.08,79.67a58.27,58.27,0,0,1-1.72,7.11s-1.75-.35-2.31-4.94A6.24,6.24,0,0,1,166.91,79s-.57,3.53-4.2,1c-2.43,2-5.3,2.19-8.55.85,0,0,.55,4.63-1,6.86,0,0-.57-1.83-2.37-7a1.75,1.75,0,0,0-1.27.73s-3.9-7.63-2.07-11.31,4.31-2.26,4.31-2.26A6.18,6.18,0,0,1,156.28,61c5.44-1.84,5.44-4.31,6.29-3.82s1.2,2.33,1.2,2.33,9.4-1,11.94,9.12c0,0,6.79.22,2.76,11.59C178.47,80.25,178.2,79.77,177.08,79.67Z"/><path class="cls-3" d="M186,94"/><rect class="cls-25" x="39.53" y="157.36" width="259.6" height="5.51" rx="0.92" ry="0.92"/><path class="cls-26" d="M234.44,143.77h11a0,0,0,0,1,0,0v9.54a4,4,0,0,1-4,4h-3a4,4,0,0,1-4-4v-9.54A0,0,0,0,1,234.44,143.77Z"/><path class="cls-27" d="M237.94,143.77v-2.94a.87.87,0,0,1,.87-.87h1.11a.87.87,0,0,0,.87-.87V138a.87.87,0,0,0-.87-.87h-3.58a4.45,4.45,0,0,1-4.45-4.45h0a4.45,4.45,0,0,1,4.45-4.45h4.74a.87.87,0,0,0,.87-.87v-.4a4.61,4.61,0,0,1,4.61-4.61h0a4.61,4.61,0,0,1,4.61,4.61h0a5,5,0,0,1-5,5h-8.35a.87.87,0,0,0-.87.87h0a.87.87,0,0,0,.87.87h4.56a3,3,0,0,1,3,3v1.91a3,3,0,0,1-3,3h0a.87.87,0,0,0-.87.87v1.25Z"/><g id="_Grupo_" data-name="&lt;Grupo&gt;"><rect id="_Rectángulo_" data-name="&lt;Rectángulo&gt;" class="cls-28" x="57.42" y="20.01" width="10.4" height="10.4" rx="1.86" ry="1.86"/><path id="_Trazado_" data-name="&lt;Trazado&gt;" class="cls-20" d="M61.83,28.35H63.1V25.18H64l.09-1.06h-1v-.6c0-.25.05-.35.29-.35h.69v-1.1H63.2c-.94,0-1.37.41-1.37,1.21v.85h-.66V25.2h.66Z"/></g><rect class="cls-2" x="199.06" y="87.57" width="32.96" height="40.59" rx="2.01" ry="2.01"/><path class="cls-29" d="M231.84,126.82H202.91a2.44,2.44,0,0,1-2.44-2.44V87.82a2.44,2.44,0,0,1,2.44-2.44h28.93a2.44,2.44,0,0,1,2.44,2.44v36.57A2.44,2.44,0,0,1,231.84,126.82ZM202.91,86.23a1.59,1.59,0,0,0-1.59,1.59v36.57a1.59,1.59,0,0,0,1.59,1.59h28.93a1.59,1.59,0,0,0,1.59-1.59V87.82a1.59,1.59,0,0,0-1.59-1.59Z"/><g class="cls-30"><path class="cls-31" d="M210.43,100.56H204v-7.7h6.43Zm-5.58-.85h4.73v-6h-4.73Z"/><path class="cls-32" d="M208.82,98.17,206.9,96l.63-.57,1.16,1.29a11.3,11.3,0,0,1,4.76-3.45l.32.78a9.79,9.79,0,0,0-4.67,3.56Z"/><path class="cls-33" d="M226.83,95.74h-10a.63.63,0,0,1-.63-.63h0a.63.63,0,0,1,.63-.63h10a.63.63,0,0,1,.63.63h0A.63.63,0,0,1,226.83,95.74Z"/><path class="cls-33" d="M226.83,98.8h-10a.63.63,0,0,1-.63-.63h0a.63.63,0,0,1,.63-.63h10a.63.63,0,0,1,.63.63h0A.63.63,0,0,1,226.83,98.8Z"/></g><g class="cls-30"><path class="cls-31" d="M210.43,112.36H204v-7.7h6.43Zm-5.58-.85h4.73v-6h-4.73Z"/><path class="cls-32" d="M208.82,110l-1.91-2.13.63-.57,1.16,1.29a11.3,11.3,0,0,1,4.76-3.45l.32.78a9.79,9.79,0,0,0-4.67,3.56Z"/><path class="cls-33" d="M226.83,107.54h-10a.63.63,0,0,1-.63-.63h0a.63.63,0,0,1,.63-.63h10a.63.63,0,0,1,.63.63h0A.63.63,0,0,1,226.83,107.54Z"/><path class="cls-33" d="M226.83,110.6h-10a.63.63,0,0,1-.63-.63h0a.63.63,0,0,1,.63-.63h10a.63.63,0,0,1,.63.63h0A.63.63,0,0,1,226.83,110.6Z"/></g><g class="cls-30"><path class="cls-31" d="M210.43,124.16H204v-7.7h6.43Zm-5.58-.85h4.73v-6h-4.73Z"/><path class="cls-32" d="M208.82,121.77l-1.91-2.13.63-.57,1.16,1.29a11.3,11.3,0,0,1,4.76-3.45l.32.78a9.79,9.79,0,0,0-4.67,3.56Z"/><path class="cls-33" d="M226.83,119.34h-10a.63.63,0,0,1-.63-.63h0a.63.63,0,0,1,.63-.63h10a.63.63,0,0,1,.63.63h0A.63.63,0,0,1,226.83,119.34Z"/><path class="cls-33" d="M226.83,122.4h-10a.63.63,0,0,1-.63-.63h0a.63.63,0,0,1,.63-.63h10a.63.63,0,0,1,.63.63h0A.63.63,0,0,1,226.83,122.4Z"/></g><path class="cls-29" d="M82.34,58.92H53.4A2.44,2.44,0,0,1,51,56.49V13.14A2.44,2.44,0,0,1,53.4,10.7H82.34a2.44,2.44,0,0,1,2.44,2.44V56.49A2.44,2.44,0,0,1,82.34,58.92ZM53.4,11.55a1.59,1.59,0,0,0-1.59,1.59V56.49a1.59,1.59,0,0,0,1.59,1.59H82.34a1.59,1.59,0,0,0,1.59-1.59V13.14a1.59,1.59,0,0,0-1.59-1.59Z"/><path class="cls-33" d="M80.87,21.9h-7.7a.88.88,0,0,1-.88-.88h0a.88.88,0,0,1,.88-.88h7.7a.88.88,0,0,1,.88.88h0A.88.88,0,0,1,80.87,21.9Z"/><path class="cls-33" d="M80.87,26.49h-7.7a.88.88,0,0,1-.88-.88h0a.88.88,0,0,1,.88-.88h7.7a.88.88,0,0,1,.88.88h0A.88.88,0,0,1,80.87,26.49Z"/><path class="cls-33" d="M80.87,30.73h-7.7a.88.88,0,0,1-.88-.88h0a.88.88,0,0,1,.88-.88h7.7a.88.88,0,0,1,.88.88h0A.88.88,0,0,1,80.87,30.73Z"/><path class="cls-33" d="M71.28,42.53H59.41a1,1,0,0,1-1-1h0a1,1,0,0,1,1-1H71.28a1,1,0,0,1,1,1h0A1,1,0,0,1,71.28,42.53Z"/><path class="cls-33" d="M71.28,48.84H59.41a1,1,0,0,1-1-1h0a1,1,0,0,1,1-1H71.28a1,1,0,0,1,1,1h0A1,1,0,0,1,71.28,48.84Z"/><path class="cls-33" d="M71.28,55.14H59.41a1,1,0,0,1-1-1h0a1,1,0,0,1,1-1H71.28a1,1,0,0,1,1,1h0A1,1,0,0,1,71.28,55.14Z"/><circle class="cls-33" cx="78.96" cy="41.52" r="1.62"/><circle class="cls-33" cx="78.96" cy="47.83" r="1.62"/><circle class="cls-33" cx="78.96" cy="54.14" r="1.62"/><rect class="cls-2" x="169.06" y="18.81" width="59.99" height="42.18" rx="3.5" ry="3.5"/><path class="cls-29" d="M227.39,59.48h-53a3.93,3.93,0,0,1-3.92-3.92V20.37a3.93,3.93,0,0,1,3.92-3.92h53a3.93,3.93,0,0,1,3.92,3.92V55.56A3.93,3.93,0,0,1,227.39,59.48Zm-53-42.18a3.08,3.08,0,0,0-3.07,3.07V55.56a3.08,3.08,0,0,0,3.07,3.07h53a3.08,3.08,0,0,0,3.07-3.07V20.37a3.08,3.08,0,0,0-3.07-3.07Z"/><path class="cls-34" d="M205.95,27.4H176.59a1.54,1.54,0,0,1-1.54-1.54h0a1.54,1.54,0,0,1,1.54-1.54h29.36a1.54,1.54,0,0,1,1.54,1.54h0A1.54,1.54,0,0,1,205.95,27.4Z"/><rect class="cls-31" x="175.05" y="32.81" width="32.43" height="17.17" rx="1.09" ry="1.09"/><path class="cls-34" d="M221.53,27.4h-8.69a1.54,1.54,0,0,1-1.54-1.54h0a1.54,1.54,0,0,1,1.54-1.54h8.69a1.54,1.54,0,0,1,1.54,1.54h0A1.54,1.54,0,0,1,221.53,27.4Z"/><path class="cls-34" d="M222.11,35.56H213a1,1,0,0,1-1-1h0a1,1,0,0,1,1-1h9.13a1,1,0,0,1,1,1h0A1,1,0,0,1,222.11,35.56Z"/><path class="cls-34" d="M222.11,39.87H213a1,1,0,0,1-1-1h0a1,1,0,0,1,1-1h9.13a1,1,0,0,1,1,1h0A1,1,0,0,1,222.11,39.87Z"/><path class="cls-34" d="M222.11,44.18H213a1,1,0,0,1-1-1h0a1,1,0,0,1,1-1h9.13a1,1,0,0,1,1,1h0A1,1,0,0,1,222.11,44.18Z"/><path class="cls-34" d="M222.11,48.49H213a1,1,0,0,1-1-1h0a1,1,0,0,1,1-1h9.13a1,1,0,0,1,1,1h0A1,1,0,0,1,222.11,48.49Z"/><path class="cls-34" d="M215.91,56.69H182.1a1.27,1.27,0,0,1-1.27-1.27h0a1.27,1.27,0,0,1,1.27-1.27h33.81a1.27,1.27,0,0,1,1.27,1.27h0A1.27,1.27,0,0,1,215.91,56.69Z"/><rect class="cls-2" x="2.48" y="68.13" width="55.82" height="36.04" rx="2.83" ry="2.83"/><path class="cls-29" d="M53.42,102.51H3.25A3.25,3.25,0,0,1,0,99.26V68.87a3.25,3.25,0,0,1,3.25-3.25H53.42a3.25,3.25,0,0,1,3.25,3.25V99.26A3.25,3.25,0,0,1,53.42,102.51Zm-50.17-36a2.41,2.41,0,0,0-2.4,2.4V99.26a2.4,2.4,0,0,0,2.4,2.4H53.42a2.4,2.4,0,0,0,2.4-2.4V68.87a2.41,2.41,0,0,0-2.4-2.4Z"/><g class="cls-35"><path class="cls-36" d="M22.57,84.77a7.2,7.2,0,1,1-2.78-11.9l-2.31,6.82Z"/><path class="cls-37" d="M25.63,79.13a6.06,6.06,0,0,1-1.79,4.31l-4.32-4.31,2-5.79A6.11,6.11,0,0,1,25.63,79.13Z"/><path class="cls-33" d="M49.93,87.3H33.39v-14a.42.42,0,0,1,.85,0V86.46H49.93a.42.42,0,1,1,0,.85Z"/><rect class="cls-33" x="36.86" y="80.11" width="2.12" height="6.34"/><rect class="cls-37" x="41.24" y="76.89" width="2.12" height="9.56"/><rect class="cls-33" x="45.55" y="81.67" width="2.12" height="4.78"/><rect class="cls-33" x="9.94" y="92.3" width="11.45" height="1.48" rx="0.74" ry="0.74"/><rect class="cls-33" x="25.13" y="92.3" width="11.45" height="1.48" rx="0.74" ry="0.74"/><rect class="cls-33" x="39.4" y="92.3" width="11.45" height="1.48" rx="0.74" ry="0.74"/><path class="cls-33" d="M27.18,99.08h-10a.74.74,0,0,1-.74-.74h0a.74.74,0,0,1,.74-.74h10a.74.74,0,0,1,.74.74h0A.74.74,0,0,1,27.18,99.08Z"/><path class="cls-33" d="M41.45,99.08h-10a.74.74,0,0,1-.74-.74h0a.74.74,0,0,1,.74-.74h10a.74.74,0,0,1,.74.74h0A.74.74,0,0,1,41.45,99.08Z"/></g><rect id="_Rectángulo_2" data-name="&lt;Rectángulo&gt;" class="cls-38" x="305.14" y="38.44" width="9.35" height="9.35" rx="1.67" ry="1.67"/><g id="_Grupo_2" data-name="&lt;Grupo&gt;"><path id="_Trazado_compuesto_" data-name="&lt;Trazado compuesto&gt;" class="cls-20" d="M309.81,41h1a1.42,1.42,0,0,1,.48.09.85.85,0,0,1,.49.49,1.42,1.42,0,0,1,.09.48c0,.27,0,.35,0,1s0,.77,0,1a1.42,1.42,0,0,1-.09.48.85.85,0,0,1-.49.49,1.42,1.42,0,0,1-.48.09h-2.07a1.42,1.42,0,0,1-.48-.09.85.85,0,0,1-.49-.49,1.42,1.42,0,0,1-.09-.48c0-.27,0-.35,0-1s0-.77,0-1a1.42,1.42,0,0,1,.09-.48.85.85,0,0,1,.49-.49,1.42,1.42,0,0,1,.48-.09h1m0-.46c-.7,0-.78,0-1.06,0a1.88,1.88,0,0,0-.62.12,1.31,1.31,0,0,0-.75.75,1.88,1.88,0,0,0-.12.62c0,.27,0,.36,0,1.06s0,.78,0,1.06a1.88,1.88,0,0,0,.12.62,1.31,1.31,0,0,0,.75.75,1.88,1.88,0,0,0,.62.12c.27,0,.36,0,1.06,0s.78,0,1.06,0a1.88,1.88,0,0,0,.62-.12,1.31,1.31,0,0,0,.75-.75,1.88,1.88,0,0,0,.12-.62c0-.27,0-.36,0-1.06s0-.78,0-1.06a1.88,1.88,0,0,0-.12-.62,1.31,1.31,0,0,0-.75-.75,1.88,1.88,0,0,0-.62-.12c-.27,0-.36,0-1.06,0"/><path id="_Trazado_compuesto_2" data-name="&lt;Trazado compuesto&gt;" class="cls-20" d="M309.81,41.8a1.32,1.32,0,1,0,1.32,1.32,1.32,1.32,0,0,0-1.32-1.32m0,2.17a.85.85,0,1,1,.85-.85.85.85,0,0,1-.85.85"/><path id="_Trazado_2" data-name="&lt;Trazado&gt;" class="cls-20" d="M311.49,41.74a.31.31,0,1,1-.31-.31.31.31,0,0,1,.31.31"/></g><path class="cls-29" d="M334.2,70.36H305.26a2.44,2.44,0,0,1-2.44-2.44V31.36a2.44,2.44,0,0,1,2.44-2.44H334.2a2.44,2.44,0,0,1,2.44,2.44V67.92A2.44,2.44,0,0,1,334.2,70.36ZM305.26,29.77a1.59,1.59,0,0,0-1.59,1.59V67.92a1.59,1.59,0,0,0,1.59,1.59H334.2a1.59,1.59,0,0,0,1.59-1.59V31.36a1.59,1.59,0,0,0-1.59-1.59Z"/><circle class="cls-33" cx="306.41" cy="53.1" r="1.48"/><circle class="cls-33" cx="306.41" cy="59.67" r="1.48"/><path class="cls-33" d="M327.25,54.58H315.38a1.48,1.48,0,0,1-1.48-1.48h0a1.48,1.48,0,0,1,1.48-1.48h11.87a1.48,1.48,0,0,1,1.48,1.48h0A1.48,1.48,0,0,1,327.25,54.58Z"/><path class="cls-33" d="M327.25,61.15H315.38a1.48,1.48,0,0,1-1.48-1.48h0a1.48,1.48,0,0,1,1.48-1.48h11.87a1.48,1.48,0,0,1,1.48,1.48h0A1.48,1.48,0,0,1,327.25,61.15Z"/><circle class="cls-33" cx="306.41" cy="66.35" r="1.48"/><path class="cls-33" d="M327.25,67.83H315.38a1.48,1.48,0,0,1-1.48-1.48h0a1.48,1.48,0,0,1,1.48-1.48h11.87a1.48,1.48,0,0,1,1.48,1.48h0A1.48,1.48,0,0,1,327.25,67.83Z"/><g id="_Grupo_3" data-name="&lt;Grupo&gt;"><rect id="_Rectángulo_3" data-name="&lt;Rectángulo&gt;" class="cls-39" x="126.52" y="91.49" width="8.56" height="8.56" rx="1.53" ry="1.53"/><path id="_Trazado_3" data-name="&lt;Trazado&gt;" class="cls-20" d="M128.52,97.2a2.66,2.66,0,0,0,4.09-2.36,1.9,1.9,0,0,0,.47-.48,1.87,1.87,0,0,1-.54.15A.94.94,0,0,0,133,94a1.87,1.87,0,0,1-.59.23.94.94,0,0,0-1.59.85,2.65,2.65,0,0,1-1.93-1,.94.94,0,0,0,.29,1.25.93.93,0,0,1-.42-.12.94.94,0,0,0,.75.93.94.94,0,0,1-.42,0,.94.94,0,0,0,.87.65A1.88,1.88,0,0,1,128.52,97.2Z"/></g><path class="cls-2" d="M140.77,89.72H105.26a2.09,2.09,0,0,0-2.09,2.09V113a2.09,2.09,0,0,0,2.09,2.09h24.5l6.39,5.66a.63.63,0,0,0,1-.67l-1.73-5h5.35a2.09,2.09,0,0,0,2.09-2.09V91.82A2.09,2.09,0,0,0,140.77,89.72Z"/><g class="cls-30"><path class="cls-33" d="M116.28,97.5H108.1a.56.56,0,0,1-.56-.56h0a.56.56,0,0,1,.56-.56h8.18a.56.56,0,0,1,.56.56h0A.56.56,0,0,1,116.28,97.5Z"/><path class="cls-33" d="M136.45,102.33H112.75a.56.56,0,0,1-.56-.56h0a.56.56,0,0,1,.56-.56h23.71a.56.56,0,0,1,.56.56h0A.56.56,0,0,1,136.45,102.33Z"/><path class="cls-33" d="M136.45,105.77H108.1a.56.56,0,0,1-.56-.56h0a.56.56,0,0,1,.56-.56h28.35a.56.56,0,0,1,.56.56h0A.56.56,0,0,1,136.45,105.77Z"/><path class="cls-33" d="M136.45,109.21H108.1a.56.56,0,0,1-.56-.56h0a.56.56,0,0,1,.56-.56h28.35a.56.56,0,0,1,.56.56h0A.56.56,0,0,1,136.45,109.21Z"/><path class="cls-33" d="M136.45,112.65H108.1a.56.56,0,0,1-.56-.56h0a.56.56,0,0,1,.56-.56h28.35a.56.56,0,0,1,.56.56h0A.56.56,0,0,1,136.45,112.65Z"/></g><text class="cls-40" transform="translate(180.95 44.1)"><tspan class="cls-41">L</tspan><tspan x="3.66" y="0">OGO</tspan></text></g></g></g></svg>