<svg xmlns="http://www.w3.org/2000/svg" width="215.905" height="200" viewBox="0 0 215.905 200"><defs><style>.a{fill:#ffc943;}.b{fill:#a5d1fe;}.c{fill:#ffe783;}.d{fill:#ffd5b8;}.e{fill:#424da3;}</style></defs><g transform="translate(-26.581 -62.007)"><g transform="translate(29.092 64.517)"><path class="a" d="M432.981,277.4h-8.658a3.092,3.092,0,0,1-3.092-3.092v-8.658a3.092,3.092,0,0,1,3.092-3.092h8.658a3.092,3.092,0,0,1,3.092,3.092v8.658A3.092,3.092,0,0,1,432.981,277.4Z" transform="translate(-232.826 -164.538)"/><path class="a" d="M72.959,277.4H64.3a3.092,3.092,0,0,1-3.092-3.092v-8.658a3.092,3.092,0,0,1,3.092-3.092h8.658a3.092,3.092,0,0,1,3.092,3.092v8.658A3.092,3.092,0,0,1,72.959,277.4Z" transform="translate(-53.572 -164.538)"/><path class="a" d="M252.97,82.61h-8.658a3.092,3.092,0,0,1-3.092-3.092V70.859a3.092,3.092,0,0,1,3.092-3.092h8.658a3.092,3.092,0,0,1,3.092,3.092v8.658A3.092,3.092,0,0,1,252.97,82.61Z" transform="translate(-143.199 -67.552)"/><path class="a" d="M252.97,82.61h-8.658a3.092,3.092,0,0,1-3.092-3.092V70.859a3.092,3.092,0,0,1,3.092-3.092h8.658a3.092,3.092,0,0,1,3.092,3.092v8.658A3.092,3.092,0,0,1,252.97,82.61Z" transform="translate(-143.199 -67.552)"/><circle class="a" cx="7.636" cy="7.636" r="7.636" transform="translate(195.612)"/><circle class="a" cx="7.636" cy="7.636" r="7.636"/></g><path class="b" d="M254.68,256.606l-12.993-3.7a51.776,51.776,0,0,0-6.016-14.517l6.574-11.808a2.578,2.578,0,0,0-.43-3.072l-8.88-8.88a2.578,2.578,0,0,0-3.072-.43l-11.808,6.574a51.769,51.769,0,0,0-14.517-6.016l-3.7-12.992a2.575,2.575,0,0,0-2.477-1.87H184.806a2.574,2.574,0,0,0-2.477,1.87l-3.7,12.992a51.779,51.779,0,0,0-14.517,6.016L152.3,214.2a2.578,2.578,0,0,0-3.072.43l-8.88,8.88a2.578,2.578,0,0,0-.43,3.072L146.5,238.39a51.772,51.772,0,0,0-6.016,14.517l-12.992,3.7a2.575,2.575,0,0,0-1.87,2.478V271.64a2.574,2.574,0,0,0,1.87,2.477l12.992,3.7a51.777,51.777,0,0,0,6.016,14.517l-6.574,11.808a2.578,2.578,0,0,0,.43,3.072l8.88,8.88a2.578,2.578,0,0,0,3.072.43l11.808-6.573a51.773,51.773,0,0,0,14.517,6.016l3.7,12.992a2.574,2.574,0,0,0,2.477,1.87h12.556a2.574,2.574,0,0,0,2.477-1.87l3.7-12.992a51.778,51.778,0,0,0,14.517-6.016l11.808,6.573a2.578,2.578,0,0,0,3.072-.43l8.88-8.88a2.578,2.578,0,0,0,.43-3.072l-6.574-11.808a51.77,51.77,0,0,0,6.016-14.517l12.993-3.7a2.574,2.574,0,0,0,1.87-2.477V259.084A2.574,2.574,0,0,0,254.68,256.606Zm-63.6,35.681a26.925,26.925,0,1,1,26.925-26.926A26.927,26.927,0,0,1,191.084,292.287Z" transform="translate(-56.549 -68.821)"/><path class="a" d="M256.131,153.752v96.242a26.925,26.925,0,0,1-31.16-.01V153.752a10.034,10.034,0,0,1,.935-4.237L236,127.824a5.024,5.024,0,0,1,9.112,0L255.2,149.515A10.118,10.118,0,0,1,256.131,153.752Z" transform="translate(-106.017 -31.49)"/><path class="c" d="M240.551,188.1v98.313a26.756,26.756,0,0,1-15.58-4.97V188.1Z" transform="translate(-106.017 -62.947)"/><path class="d" d="M235.994,127.827,225.9,149.514a10.051,10.051,0,0,0-.938,4.24v6.406a12.747,12.747,0,0,0,12.874-.484,5.12,5.12,0,0,1,5.483.042,12.742,12.742,0,0,0,12.8.442v-6.407a10.052,10.052,0,0,0-.938-4.239l-10.085-21.688A5.024,5.024,0,0,0,235.994,127.827Z" transform="translate(-106.015 -31.491)"/><path class="b" d="M241.457,127.827,235.938,139.7a15.893,15.893,0,0,0,20.149-.005l-5.519-11.867A5.024,5.024,0,0,0,241.457,127.827Z" transform="translate(-111.477 -31.491)"/><path class="e" d="M246.759,82.633a10.147,10.147,0,1,0-9.82-12.658H158.884V68.157a5.609,5.609,0,0,0-5.6-5.6h-8.658a5.609,5.609,0,0,0-5.6,5.6v1.818H60.966a10.147,10.147,0,1,0,0,5.021h57.8A92.952,92.952,0,0,0,56.094,160.36H54.239a5.609,5.609,0,0,0-5.6,5.6v8.658a5.609,5.609,0,0,0,5.6,5.6H62.9a5.609,5.609,0,0,0,5.6-5.6v-8.658a5.609,5.609,0,0,0-5.6-5.6H61.118a87.875,87.875,0,0,1,77.9-84.805v1.26a5.609,5.609,0,0,0,5.6,5.6h8.658a5.609,5.609,0,0,0,5.6-5.6v-1.26a87.875,87.875,0,0,1,77.9,84.806h-1.778a5.609,5.609,0,0,0-5.6,5.6v8.658a5.609,5.609,0,0,0,5.6,5.6h8.658a5.609,5.609,0,0,0,5.6-5.6v-8.658a5.609,5.609,0,0,0-5.6-5.6H241.81A92.952,92.952,0,0,0,179.14,75h57.8a10.157,10.157,0,0,0,9.82,7.636ZM63.479,165.962v8.658a.582.582,0,0,1-.582.581H54.239a.582.582,0,0,1-.582-.581v-8.658a.582.582,0,0,1,.582-.581H62.9A.582.582,0,0,1,63.479,165.962Zm180.769,0v8.658a.582.582,0,0,1-.582.581h-8.658a.582.582,0,0,1-.582-.581v-8.658a.582.582,0,0,1,.582-.581h8.658A.582.582,0,0,1,244.248,165.962Zm2.51-98.6a5.126,5.126,0,1,1-5.126,5.125A5.131,5.131,0,0,1,246.759,67.36ZM51.147,77.611a5.126,5.126,0,1,1,5.126-5.126A5.132,5.132,0,0,1,51.147,77.611Zm102.717-.8a.582.582,0,0,1-.581.581h-8.658a.582.582,0,0,1-.581-.581V68.157a.582.582,0,0,1,.581-.582h8.658a.582.582,0,0,1,.581.582Z" transform="translate(-14.419 -0.332)"/><path class="c" d="M50.328,143.288a2.51,2.51,0,0,1-2.511-2.511,3.013,3.013,0,0,0-3.01-3.01,2.511,2.511,0,0,1,0-5.021,3.013,3.013,0,0,0,3.01-3.01,2.511,2.511,0,1,1,5.021,0,3.013,3.013,0,0,0,3.01,3.01,2.511,2.511,0,0,1,0,5.021,3.013,3.013,0,0,0-3.01,3.01,2.51,2.51,0,0,1-2.511,2.511Z" transform="translate(-15.064 -32.639)"/><path class="b" d="M337.555,171.174a2.51,2.51,0,0,1-2.51-2.511,3.013,3.013,0,0,0-3.011-3.01,2.511,2.511,0,1,1,0-5.021,3.013,3.013,0,0,0,3.011-3.01,2.511,2.511,0,0,1,5.021,0,3.013,3.013,0,0,0,3.01,3.01,2.511,2.511,0,1,1,0,5.021,3.013,3.013,0,0,0-3.01,3.01A2.511,2.511,0,0,1,337.555,171.174Z" transform="translate(-158.073 -46.523)"/><path class="a" d="M93.8,422.062a2.5,2.5,0,0,1-1.775-.736l-5.52-5.52a2.51,2.51,0,0,1,0-3.55l5.52-5.52a2.509,2.509,0,0,1,3.55,0l5.52,5.52a2.51,2.51,0,0,1,0,3.55l-5.52,5.52A2.5,2.5,0,0,1,93.8,422.062Zm-1.97-8.031L93.8,416l1.97-1.97-1.97-1.97Z" transform="translate(-36.71 -171.439)"/><path class="a" d="M424.617,342.553a2.5,2.5,0,0,1-1.775-.735l-5.52-5.52a2.509,2.509,0,0,1,0-3.55l5.52-5.52a2.509,2.509,0,0,1,3.55,0l5.52,5.52a2.51,2.51,0,0,1,0,3.55l-5.52,5.52A2.5,2.5,0,0,1,424.617,342.553Zm-1.969-8.031,1.969,1.97,1.97-1.97-1.97-1.97Z" transform="translate(-201.421 -131.853)"/></g></svg>