<svg xmlns="http://www.w3.org/2000/svg" width="210.305" height="200" viewBox="0 0 210.305 200"><defs><style>.a{fill:#424da3;}.b{fill:#a5d1fe;}.c{fill:#ffc943;}</style></defs><path class="a" d="M321.928,243.741l-13.4-3.814a53.376,53.376,0,0,0-6.2-14.967l6.777-12.173a2.658,2.658,0,0,0-.443-3.167l-9.155-9.155a2.658,2.658,0,0,0-3.167-.443L284.169,206.8a53.379,53.379,0,0,0-14.967-6.2l-3.814-13.4a2.654,2.654,0,0,0-2.554-1.928H249.889a2.654,2.654,0,0,0-2.554,1.928l-3.814,13.4a53.378,53.378,0,0,0-14.967,6.2l-12.173-6.777a2.658,2.658,0,0,0-3.167.443l-9.155,9.155a2.658,2.658,0,0,0-.443,3.167l6.777,12.173a53.373,53.373,0,0,0-6.2,14.967l-13.4,3.814a2.654,2.654,0,0,0-1.928,2.554V259.24a2.654,2.654,0,0,0,1.928,2.554l13.4,3.814a53.377,53.377,0,0,0,6.2,14.967l-6.777,12.173a2.658,2.658,0,0,0,.443,3.167l9.155,9.155a2.658,2.658,0,0,0,3.167.443l12.173-6.777a53.371,53.371,0,0,0,14.967,6.2l3.814,13.4a2.654,2.654,0,0,0,2.554,1.928h12.945a2.654,2.654,0,0,0,2.554-1.928l3.814-13.4a53.377,53.377,0,0,0,14.967-6.2l12.173,6.777a2.658,2.658,0,0,0,3.167-.443l9.155-9.155a2.658,2.658,0,0,0,.443-3.167l-6.777-12.173a53.377,53.377,0,0,0,6.2-14.967l13.4-3.814a2.654,2.654,0,0,0,1.928-2.554V246.3A2.654,2.654,0,0,0,321.928,243.741Zm-65.567,42.251a33.225,33.225,0,1,1,33.225-33.225,33.227,33.227,0,0,1-33.225,33.225Z" transform="translate(-113.551 -120.262)"/><path class="b" d="M91.257,231.3l-7.233-2.06a28.825,28.825,0,0,0-3.349-8.082l3.66-6.573a1.436,1.436,0,0,0-.239-1.71l-4.944-4.944a1.435,1.435,0,0,0-1.71-.239l-6.573,3.66A28.824,28.824,0,0,0,62.786,208l-2.06-7.233a1.433,1.433,0,0,0-1.38-1.041h-6.99a1.434,1.434,0,0,0-1.38,1.041L48.917,208a28.824,28.824,0,0,0-8.082,3.349l-6.573-3.66a1.436,1.436,0,0,0-1.71.239l-4.944,4.944a1.435,1.435,0,0,0-.239,1.71l3.66,6.573a28.826,28.826,0,0,0-3.349,8.082l-7.233,2.06a1.433,1.433,0,0,0-1.041,1.379v6.99a1.433,1.433,0,0,0,1.041,1.379l7.233,2.06a28.826,28.826,0,0,0,3.349,8.082l-3.66,6.573a1.436,1.436,0,0,0,.239,1.71l4.944,4.944a1.435,1.435,0,0,0,1.71.239l6.573-3.66a28.826,28.826,0,0,0,8.082,3.349l2.06,7.233a1.433,1.433,0,0,0,1.38,1.041h6.99a1.434,1.434,0,0,0,1.38-1.041l2.06-7.233a28.826,28.826,0,0,0,8.082-3.349l6.573,3.66a1.436,1.436,0,0,0,1.71-.239l4.944-4.944a1.435,1.435,0,0,0,.239-1.71l-3.66-6.573a28.819,28.819,0,0,0,3.349-8.082l7.233-2.06a1.433,1.433,0,0,0,1.041-1.379v-6.99a1.433,1.433,0,0,0-1.041-1.379Zm-35.4,16.338A11.464,11.464,0,1,1,67.315,236.17,11.464,11.464,0,0,1,55.852,247.634Z" transform="translate(-19.406 -128.291)"/><path class="c" d="M193.779,73,185.99,70.78a31.04,31.04,0,0,0-3.607-8.7L186.324,55a1.546,1.546,0,0,0-.258-1.842l-5.324-5.324a1.546,1.546,0,0,0-1.842-.258l-7.079,3.941a31.038,31.038,0,0,0-8.7-3.607L160.9,40.12A1.544,1.544,0,0,0,159.415,39h-7.528A1.544,1.544,0,0,0,150.4,40.12l-2.218,7.789a31.039,31.039,0,0,0-8.7,3.607L132.4,47.575a1.546,1.546,0,0,0-1.842.258l-5.323,5.324A1.546,1.546,0,0,0,124.98,55l3.941,7.079a31.038,31.038,0,0,0-3.607,8.7L117.525,73a1.544,1.544,0,0,0-1.121,1.485v7.528a1.544,1.544,0,0,0,1.121,1.485l7.789,2.218a31.038,31.038,0,0,0,3.607,8.7L124.98,101.5a1.546,1.546,0,0,0,.258,1.842l5.324,5.324a1.546,1.546,0,0,0,1.842.258l7.079-3.941a31.026,31.026,0,0,0,8.7,3.607l2.218,7.789a1.544,1.544,0,0,0,1.485,1.121h7.528a1.544,1.544,0,0,0,1.485-1.121l2.218-7.789a31.039,31.039,0,0,0,8.7-3.607l7.079,3.941a1.546,1.546,0,0,0,1.842-.258l5.324-5.324a1.546,1.546,0,0,0,.258-1.842l-3.941-7.079a31.038,31.038,0,0,0,3.607-8.7l7.789-2.218a1.544,1.544,0,0,0,1.121-1.485V74.484A1.545,1.545,0,0,0,193.779,73ZM155.652,93.514a15.267,15.267,0,1,1,15.267-15.267A15.268,15.268,0,0,1,155.652,93.514Z" transform="translate(-73.294 -38.999)"/><path class="c" d="M144.082,394.282a2.217,2.217,0,0,1-1.572-.651l-4.889-4.889a2.222,2.222,0,0,1,0-3.143l4.889-4.889a2.223,2.223,0,0,1,3.143,0l4.889,4.889a2.223,2.223,0,0,1,0,3.143l-4.889,4.889A2.218,2.218,0,0,1,144.082,394.282Zm-1.747-7.111,1.746,1.746,1.746-1.746-1.746-1.746Z" transform="translate(-84.72 -228.478)"/><path class="c" d="M343.62,130.535a2.223,2.223,0,0,1-2.222-2.222,2.67,2.67,0,0,0-2.667-2.667,2.222,2.222,0,0,1,0-4.444,2.67,2.67,0,0,0,2.667-2.667,2.222,2.222,0,1,1,4.444,0,2.669,2.669,0,0,0,2.667,2.667,2.222,2.222,0,1,1,0,4.444,2.669,2.669,0,0,0-2.667,2.667A2.222,2.222,0,0,1,343.62,130.535Z" transform="translate(-195.575 -81.951)"/><path class="b" d="M174.523,443.868a2.223,2.223,0,0,1-2.222-2.222,2.67,2.67,0,0,0-2.667-2.667,2.222,2.222,0,1,1,0-4.444,2.669,2.669,0,0,0,2.667-2.667,2.222,2.222,0,0,1,4.444,0,2.669,2.669,0,0,0,2.667,2.667,2.222,2.222,0,1,1,0,4.444,2.67,2.67,0,0,0-2.667,2.667A2.222,2.222,0,0,1,174.523,443.868Z" transform="translate(-101.632 -256.026)"/><path class="b" d="M66.727,155.177a2.222,2.222,0,0,1-2.222-2.222,2.67,2.67,0,0,0-2.667-2.667,2.222,2.222,0,1,1,0-4.444,2.67,2.67,0,0,0,2.667-2.667,2.222,2.222,0,0,1,4.444,0,2.67,2.67,0,0,0,2.667,2.667,2.222,2.222,0,1,1,0,4.444,2.67,2.67,0,0,0-2.667,2.667A2.222,2.222,0,0,1,66.727,155.177Z" transform="translate(-41.745 -95.641)"/></svg>